<?xml version="1.0" encoding="utf-8"?>
<!-- Generator: Adobe Illustrator 15.0.0, SVG Export Plug-In . SVG Version: 6.00 Build 0)  -->
<!DOCTYPE svg PUBLIC "-//W3C//DTD SVG 1.1//EN" "http://www.w3.org/Graphics/SVG/1.1/DTD/svg11.dtd">
<svg version="1.1" id="Ebene_1" xmlns="http://www.w3.org/2000/svg" xmlns:xlink="http://www.w3.org/1999/xlink" x="0px" y="0px"
	 width="163px" height="28.038px" viewBox="0 0 163 28.038" enable-background="new 0 0 163 28.038" xml:space="preserve">
<line fill="none" stroke="#A1A8BF" stroke-width="1.163" x1="7.549" y1="-155.982" x2="134.563" y2="-155.982"/>
<g>
	<path fill="#A1A8BF" d="M146.434-152.777v-2.545h-2.523c-0.347,0-0.591-0.285-0.591-0.713c0-0.406,0.244-0.732,0.591-0.732h2.523
		v-2.523c0-0.306,0.326-0.611,0.753-0.611c0.428,0,0.713,0.306,0.713,0.611v2.523h2.524c0.305,0,0.609,0.326,0.609,0.732
		c0,0.428-0.305,0.713-0.609,0.713h-2.524v2.545c0,0.346-0.285,0.59-0.713,0.59C146.76-152.187,146.434-152.431,146.434-152.777z"/>
</g>
<g>
	<defs>
		<rect id="SVGID_1_" x="-143" y="-172.052" width="298.371" height="228.465"/>
	</defs>
	<clipPath id="SVGID_2_">
		<use xlink:href="#SVGID_1_"  overflow="visible"/>
	</clipPath>
	<path clip-path="url(#SVGID_2_)" fill="none" stroke="#A1A8BF" stroke-width="1.5" d="M148.034-149.396
		c3.638,0,6.587-2.949,6.587-6.588c0-3.638-2.949-6.586-6.587-6.586s-14.173,6.586-14.173,6.586S144.396-149.396,148.034-149.396z"
		/>
</g>
<line fill="none" stroke="#A1A8BF" stroke-width="1.163" x1="7.522" y1="46.83" x2="134.535" y2="46.83"/>
<g>
	<defs>
		<rect id="SVGID_3_" x="-143" y="-172.052" width="298.371" height="228.465"/>
	</defs>
	<clipPath id="SVGID_4_">
		<use xlink:href="#SVGID_3_"  overflow="visible"/>
	</clipPath>
	<g clip-path="url(#SVGID_4_)">
		<path fill="#A1A8BF" d="M146.434,50.035v-2.544h-2.523c-0.347,0-0.591-0.285-0.591-0.711c0-0.407,0.244-0.733,0.591-0.733h2.523
			v-2.524c0-0.305,0.326-0.61,0.753-0.61c0.428,0,0.713,0.306,0.713,0.61v2.524h2.524c0.305,0,0.609,0.326,0.609,0.733
			c0,0.427-0.305,0.711-0.609,0.711h-2.524v2.544c0,0.346-0.285,0.59-0.713,0.59C146.76,50.625,146.434,50.381,146.434,50.035z"/>
	</g>
	<path clip-path="url(#SVGID_4_)" fill="none" stroke="#A1A8BF" stroke-width="1.5" d="M148.034,53.415
		c3.638,0,6.587-2.949,6.587-6.586c0-3.637-2.949-6.585-6.587-6.585s-14.173,6.585-14.173,6.585S144.396,53.415,148.034,53.415z"/>
</g>
<line fill="none" stroke="#FFF59F" stroke-width="1.163" x1="7.522" y1="-121.967" x2="134.535" y2="-121.967"/>
<g>
	<path fill="#FFF59F" d="M146.434-118.761v-2.545h-2.523c-0.347,0-0.591-0.285-0.591-0.713c0-0.406,0.244-0.732,0.591-0.732h2.523
		v-2.523c0-0.306,0.326-0.611,0.753-0.611c0.428,0,0.713,0.306,0.713,0.611v2.523h2.524c0.305,0,0.609,0.326,0.609,0.732
		c0,0.428-0.305,0.713-0.609,0.713h-2.524v2.545c0,0.346-0.285,0.59-0.713,0.59C146.76-118.171,146.434-118.416,146.434-118.761z"/>
</g>
<g>
	<defs>
		<rect id="SVGID_5_" x="-143" y="-172.052" width="298.371" height="228.465"/>
	</defs>
	<clipPath id="SVGID_6_">
		<use xlink:href="#SVGID_5_"  overflow="visible"/>
	</clipPath>
	<path clip-path="url(#SVGID_6_)" fill="none" stroke="#FFF59F" stroke-width="1.5" d="M148.034-115.38
		c3.638,0,6.587-2.949,6.587-6.587s-2.949-6.586-6.587-6.586s-14.173,6.586-14.173,6.586S144.396-115.38,148.034-115.38z"/>
</g>
<line fill="none" stroke="#9ED5EE" stroke-width="1.163" x1="7.522" y1="-88.417" x2="134.535" y2="-88.417"/>
<g>
	<path fill="#9ED5EE" d="M146.434-85.212v-2.544h-2.523c-0.346,0-0.59-0.285-0.59-0.712c0-0.407,0.244-0.733,0.59-0.733h2.523
		v-2.524c0-0.305,0.326-0.61,0.754-0.61s0.713,0.306,0.713,0.61v2.524h2.523c0.305,0,0.61,0.326,0.61,0.733
		c0,0.427-0.306,0.712-0.61,0.712H147.9v2.544c0,0.347-0.285,0.591-0.713,0.591S146.434-84.866,146.434-85.212z"/>
</g>
<g>
	<defs>
		<rect id="SVGID_7_" x="-143" y="-172.052" width="298.371" height="228.465"/>
	</defs>
	<clipPath id="SVGID_8_">
		<use xlink:href="#SVGID_7_"  overflow="visible"/>
	</clipPath>
	<path clip-path="url(#SVGID_8_)" fill="none" stroke="#9ED5EE" stroke-width="1.5" d="M148.034-81.831
		c3.638,0,6.587-2.948,6.587-6.587c0-3.638-2.949-6.586-6.587-6.586s-14.173,6.586-14.173,6.586S144.396-81.831,148.034-81.831z"/>
</g>
<line fill="none" stroke="#CDC4CB" stroke-width="1.163" x1="7.522" y1="-54.288" x2="134.535" y2="-54.288"/>
<g>
	<path fill="#CDC4CB" d="M146.434-51.083v-2.544h-2.523c-0.347,0-0.591-0.285-0.591-0.713c0-0.406,0.244-0.732,0.591-0.732h2.523
		v-2.524c0-0.306,0.326-0.611,0.753-0.611c0.428,0,0.713,0.306,0.713,0.611v2.524h2.524c0.305,0,0.609,0.326,0.609,0.732
		c0,0.428-0.305,0.713-0.609,0.713h-2.524v2.544c0,0.346-0.285,0.59-0.713,0.59C146.76-50.494,146.434-50.738,146.434-51.083z"/>
</g>
<g>
	<defs>
		<rect id="SVGID_9_" x="-143" y="-172.052" width="298.371" height="228.465"/>
	</defs>
	<clipPath id="SVGID_10_">
		<use xlink:href="#SVGID_9_"  overflow="visible"/>
	</clipPath>
	<path clip-path="url(#SVGID_10_)" fill="none" stroke="#CDC4CB" stroke-width="1.5" d="M148.034-47.703
		c3.638,0,6.587-2.948,6.587-6.585c0-3.64-2.949-6.588-6.587-6.588s-14.173,6.588-14.173,6.588S144.396-47.703,148.034-47.703z"/>
</g>
<line fill="none" stroke="#E67D6D" stroke-width="1.163" x1="7.522" y1="-20.456" x2="134.535" y2="-20.456"/>
<g>
	<path fill="#E67D6D" d="M146.434-17.254v-2.542h-2.523c-0.347,0-0.591-0.285-0.591-0.712c0-0.406,0.244-0.732,0.591-0.732h2.523
		v-2.523c0-0.306,0.326-0.611,0.753-0.611c0.428,0,0.713,0.306,0.713,0.611v2.523h2.524c0.305,0,0.609,0.326,0.609,0.732
		c0,0.427-0.305,0.712-0.609,0.712h-2.524v2.542c0,0.346-0.285,0.59-0.713,0.59C146.76-16.664,146.434-16.908,146.434-17.254z"/>
</g>
<g>
	<defs>
		<rect id="SVGID_11_" x="-143" y="-172.052" width="298.371" height="228.465"/>
	</defs>
	<clipPath id="SVGID_12_">
		<use xlink:href="#SVGID_11_"  overflow="visible"/>
	</clipPath>
	<path clip-path="url(#SVGID_12_)" fill="none" stroke="#E67D6D" stroke-width="1.5" d="M148.034-13.875
		c3.638,0,6.587-2.949,6.587-6.582c0-3.637-2.949-6.585-6.587-6.585s-14.173,6.585-14.173,6.585S144.396-13.875,148.034-13.875z"/>
</g>
<line fill="none" stroke="#F2A390" stroke-width="1.163" x1="7.522" y1="13.373" x2="134.535" y2="13.373"/>
<g>
	<path fill="#F2A390" d="M146.434,16.578v-2.543h-2.523c-0.347,0-0.591-0.285-0.591-0.711c0-0.407,0.244-0.733,0.591-0.733h2.523
		v-2.524c0-0.305,0.326-0.61,0.753-0.61c0.428,0,0.713,0.306,0.713,0.61v2.524h2.524c0.305,0,0.609,0.326,0.609,0.733
		c0,0.426-0.305,0.711-0.609,0.711h-2.524v2.543c0,0.347-0.285,0.591-0.713,0.591C146.76,17.168,146.434,16.924,146.434,16.578z"/>
</g>
<g>
	<defs>
		<polyline id="SVGID_13_" points="-143,56.414 155.371,56.414 155.371,-172.052 		"/>
	</defs>
	<clipPath id="SVGID_14_">
		<use xlink:href="#SVGID_13_"  overflow="visible"/>
	</clipPath>
	<path clip-path="url(#SVGID_14_)" fill="none" stroke="#F2A390" stroke-width="1.5" d="M148.034,19.958
		c3.638,0,6.587-2.949,6.587-6.586s-2.949-6.585-6.587-6.585s-14.173,6.585-14.173,6.585S144.396,19.958,148.034,19.958z"/>
</g>
<text transform="matrix(1 0 0 1 -78.6719 215.624)" fill="#1A171B" font-family="'Dosis-Light'" font-size="9.3035"> </text>
</svg>
