<?xml version="1.0" encoding="utf-8"?>
<!-- Generator: Adobe Illustrator 15.0.0, SVG Export Plug-In . SVG Version: 6.00 Build 0)  -->
<!DOCTYPE svg PUBLIC "-//W3C//DTD SVG 1.1//EN" "http://www.w3.org/Graphics/SVG/1.1/DTD/svg11.dtd">
<svg version="1.1" id="Ebene_1" xmlns="http://www.w3.org/2000/svg" xmlns:xlink="http://www.w3.org/1999/xlink" x="0px" y="0px"
	 width="163px" height="28.038px" viewBox="0 0 163 28.038" enable-background="new 0 0 163 28.038" xml:space="preserve">
<line fill="none" stroke="#A1A8BF" stroke-width="1.163" x1="7.549" y1="-187.192" x2="134.563" y2="-187.192"/>
<g>
	<path fill="#A1A8BF" d="M146.434-183.987v-2.545h-2.523c-0.347,0-0.591-0.285-0.591-0.713c0-0.406,0.244-0.732,0.591-0.732h2.523
		v-2.523c0-0.306,0.326-0.611,0.753-0.611c0.428,0,0.713,0.306,0.713,0.611v2.523h2.524c0.305,0,0.609,0.326,0.609,0.732
		c0,0.428-0.305,0.713-0.609,0.713h-2.524v2.545c0,0.346-0.285,0.59-0.713,0.59C146.76-183.397,146.434-183.641,146.434-183.987z"/>
</g>
<g>
	<defs>
		<rect id="SVGID_1_" x="-143" y="-203.262" width="298.371" height="228.465"/>
	</defs>
	<clipPath id="SVGID_2_">
		<use xlink:href="#SVGID_1_"  overflow="visible"/>
	</clipPath>
	<path clip-path="url(#SVGID_2_)" fill="none" stroke="#A1A8BF" stroke-width="1.5" d="M148.034-180.605
		c3.638,0,6.587-2.949,6.587-6.588c0-3.638-2.949-6.586-6.587-6.586s-14.173,6.586-14.173,6.586S144.396-180.605,148.034-180.605z"
		/>
</g>
<line fill="none" stroke="#A1A8BF" stroke-width="1.163" x1="7.522" y1="15.62" x2="134.535" y2="15.62"/>
<g>
	<defs>
		<rect id="SVGID_3_" x="-143" y="-203.262" width="298.371" height="228.465"/>
	</defs>
	<clipPath id="SVGID_4_">
		<use xlink:href="#SVGID_3_"  overflow="visible"/>
	</clipPath>
	<g clip-path="url(#SVGID_4_)">
		<path fill="#A1A8BF" d="M146.434,18.825v-2.544h-2.523c-0.347,0-0.591-0.285-0.591-0.711c0-0.407,0.244-0.733,0.591-0.733h2.523
			v-2.524c0-0.305,0.326-0.61,0.753-0.61c0.428,0,0.713,0.306,0.713,0.61v2.524h2.524c0.305,0,0.609,0.326,0.609,0.733
			c0,0.427-0.305,0.711-0.609,0.711h-2.524v2.544c0,0.346-0.285,0.59-0.713,0.59C146.76,19.416,146.434,19.171,146.434,18.825z"/>
	</g>
	<path clip-path="url(#SVGID_4_)" fill="none" stroke="#A1A8BF" stroke-width="1.5" d="M148.034,22.205
		c3.638,0,6.587-2.949,6.587-6.586c0-3.637-2.949-6.585-6.587-6.585s-14.173,6.585-14.173,6.585S144.396,22.205,148.034,22.205z"/>
</g>
<line fill="none" stroke="#FFF59F" stroke-width="1.163" x1="7.522" y1="-153.177" x2="134.535" y2="-153.177"/>
<g>
	<path fill="#FFF59F" d="M146.434-149.971v-2.545h-2.523c-0.347,0-0.591-0.285-0.591-0.713c0-0.406,0.244-0.732,0.591-0.732h2.523
		v-2.523c0-0.306,0.326-0.611,0.753-0.611c0.428,0,0.713,0.306,0.713,0.611v2.523h2.524c0.305,0,0.609,0.326,0.609,0.732
		c0,0.428-0.305,0.713-0.609,0.713h-2.524v2.545c0,0.346-0.285,0.59-0.713,0.59C146.76-149.381,146.434-149.625,146.434-149.971z"/>
</g>
<g>
	<defs>
		<rect id="SVGID_5_" x="-143" y="-203.262" width="298.371" height="228.465"/>
	</defs>
	<clipPath id="SVGID_6_">
		<use xlink:href="#SVGID_5_"  overflow="visible"/>
	</clipPath>
	<path clip-path="url(#SVGID_6_)" fill="none" stroke="#FFF59F" stroke-width="1.5" d="M148.034-146.59
		c3.638,0,6.587-2.949,6.587-6.587s-2.949-6.586-6.587-6.586s-14.173,6.586-14.173,6.586S144.396-146.59,148.034-146.59z"/>
</g>
<line fill="none" stroke="#9ED5EE" stroke-width="1.163" x1="7.522" y1="-119.627" x2="134.535" y2="-119.627"/>
<g>
	<path fill="#9ED5EE" d="M146.434-116.422v-2.544h-2.523c-0.346,0-0.59-0.285-0.59-0.712c0-0.407,0.244-0.733,0.59-0.733h2.523
		v-2.524c0-0.305,0.326-0.61,0.754-0.61s0.713,0.306,0.713,0.61v2.524h2.523c0.305,0,0.61,0.326,0.61,0.733
		c0,0.427-0.306,0.712-0.61,0.712H147.9v2.544c0,0.347-0.285,0.591-0.713,0.591S146.434-116.076,146.434-116.422z"/>
</g>
<g>
	<defs>
		<rect id="SVGID_7_" x="-143" y="-203.262" width="298.371" height="228.465"/>
	</defs>
	<clipPath id="SVGID_8_">
		<use xlink:href="#SVGID_7_"  overflow="visible"/>
	</clipPath>
	<path clip-path="url(#SVGID_8_)" fill="none" stroke="#9ED5EE" stroke-width="1.5" d="M148.034-113.041
		c3.638,0,6.587-2.948,6.587-6.587c0-3.638-2.949-6.586-6.587-6.586s-14.173,6.586-14.173,6.586S144.396-113.041,148.034-113.041z"
		/>
</g>
<line fill="none" stroke="#CDC4CB" stroke-width="1.163" x1="7.522" y1="-85.498" x2="134.535" y2="-85.498"/>
<g>
	<path fill="#CDC4CB" d="M146.434-82.293v-2.544h-2.523c-0.347,0-0.591-0.285-0.591-0.713c0-0.406,0.244-0.732,0.591-0.732h2.523
		v-2.524c0-0.306,0.326-0.611,0.753-0.611c0.428,0,0.713,0.306,0.713,0.611v2.524h2.524c0.305,0,0.609,0.326,0.609,0.732
		c0,0.428-0.305,0.713-0.609,0.713h-2.524v2.544c0,0.346-0.285,0.59-0.713,0.59C146.76-81.704,146.434-81.948,146.434-82.293z"/>
</g>
<g>
	<defs>
		<rect id="SVGID_9_" x="-143" y="-203.262" width="298.371" height="228.465"/>
	</defs>
	<clipPath id="SVGID_10_">
		<use xlink:href="#SVGID_9_"  overflow="visible"/>
	</clipPath>
	<path clip-path="url(#SVGID_10_)" fill="none" stroke="#CDC4CB" stroke-width="1.5" d="M148.034-78.913
		c3.638,0,6.587-2.948,6.587-6.585c0-3.64-2.949-6.588-6.587-6.588s-14.173,6.588-14.173,6.588S144.396-78.913,148.034-78.913z"/>
</g>
<line fill="none" stroke="#E67D6D" stroke-width="1.163" x1="7.522" y1="-51.666" x2="134.535" y2="-51.666"/>
<g>
	<path fill="#E67D6D" d="M146.434-48.464v-2.542h-2.523c-0.347,0-0.591-0.285-0.591-0.712c0-0.406,0.244-0.732,0.591-0.732h2.523
		v-2.523c0-0.306,0.326-0.611,0.753-0.611c0.428,0,0.713,0.306,0.713,0.611v2.523h2.524c0.305,0,0.609,0.326,0.609,0.732
		c0,0.427-0.305,0.712-0.609,0.712h-2.524v2.542c0,0.346-0.285,0.59-0.713,0.59C146.76-47.874,146.434-48.118,146.434-48.464z"/>
</g>
<g>
	<defs>
		<rect id="SVGID_11_" x="-143" y="-203.262" width="298.371" height="228.465"/>
	</defs>
	<clipPath id="SVGID_12_">
		<use xlink:href="#SVGID_11_"  overflow="visible"/>
	</clipPath>
	<path clip-path="url(#SVGID_12_)" fill="none" stroke="#E67D6D" stroke-width="1.5" d="M148.034-45.084
		c3.638,0,6.587-2.949,6.587-6.582c0-3.637-2.949-6.585-6.587-6.585s-14.173,6.585-14.173,6.585S144.396-45.084,148.034-45.084z"/>
</g>
<line fill="none" stroke="#F2A390" stroke-width="1.163" x1="7.522" y1="-17.837" x2="134.535" y2="-17.837"/>
<g>
	<path fill="#F2A390" d="M146.434-14.632v-2.543h-2.523c-0.347,0-0.591-0.285-0.591-0.711c0-0.407,0.244-0.733,0.591-0.733h2.523
		v-2.524c0-0.305,0.326-0.61,0.753-0.61c0.428,0,0.713,0.306,0.713,0.61v2.524h2.524c0.305,0,0.609,0.326,0.609,0.733
		c0,0.426-0.305,0.711-0.609,0.711h-2.524v2.543c0,0.347-0.285,0.591-0.713,0.591C146.76-14.042,146.434-14.286,146.434-14.632z"/>
</g>
<g>
	<defs>
		<polyline id="SVGID_13_" points="-143,25.204 155.371,25.204 155.371,-203.262 		"/>
	</defs>
	<clipPath id="SVGID_14_">
		<use xlink:href="#SVGID_13_"  overflow="visible"/>
	</clipPath>
	<path clip-path="url(#SVGID_14_)" fill="none" stroke="#F2A390" stroke-width="1.5" d="M148.034-11.252
		c3.638,0,6.587-2.949,6.587-6.586s-2.949-6.585-6.587-6.585s-14.173,6.585-14.173,6.585S144.396-11.252,148.034-11.252z"/>
</g>
<text transform="matrix(1 0 0 1 -78.6719 215.624)" fill="#1A171B" font-family="'Dosis-Light'" font-size="9.3035"> </text>
</svg>
