<?xml version="1.0" encoding="utf-8"?>
<!-- Generator: Adobe Illustrator 15.0.0, SVG Export Plug-In . SVG Version: 6.00 Build 0)  -->
<!DOCTYPE svg PUBLIC "-//W3C//DTD SVG 1.1//EN" "http://www.w3.org/Graphics/SVG/1.1/DTD/svg11.dtd">
<svg version="1.1" id="Ebene_1" xmlns="http://www.w3.org/2000/svg" xmlns:xlink="http://www.w3.org/1999/xlink" x="0px" y="0px"
	 width="163px" height="28.038px" viewBox="0 0 163 28.038" enable-background="new 0 0 163 28.038" xml:space="preserve">
<line fill="none" stroke="#A1A8BF" stroke-width="1.163" x1="7.549" y1="-87.955" x2="134.563" y2="-87.955"/>
<g>
	<path fill="#A1A8BF" d="M146.434-84.75v-2.545h-2.523c-0.347,0-0.591-0.285-0.591-0.713c0-0.406,0.244-0.732,0.591-0.732h2.523
		v-2.523c0-0.306,0.326-0.611,0.753-0.611c0.428,0,0.713,0.306,0.713,0.611v2.523h2.524c0.305,0,0.609,0.326,0.609,0.732
		c0,0.428-0.305,0.713-0.609,0.713h-2.524v2.545c0,0.346-0.285,0.59-0.713,0.59C146.76-84.16,146.434-84.404,146.434-84.75z"/>
</g>
<g>
	<defs>
		<rect id="SVGID_1_" x="-143" y="-104.024" width="298.371" height="228.467"/>
	</defs>
	<clipPath id="SVGID_2_">
		<use xlink:href="#SVGID_1_"  overflow="visible"/>
	</clipPath>
	<path clip-path="url(#SVGID_2_)" fill="none" stroke="#A1A8BF" stroke-width="1.5" d="M148.034-81.368
		c3.638,0,6.587-2.949,6.587-6.588c0-3.638-2.949-6.586-6.587-6.586s-14.173,6.586-14.173,6.586S144.396-81.368,148.034-81.368z"/>
</g>
<line fill="none" stroke="#A1A8BF" stroke-width="1.163" x1="7.522" y1="114.857" x2="134.535" y2="114.857"/>
<g>
	<defs>
		<rect id="SVGID_3_" x="-143" y="-104.024" width="298.371" height="228.467"/>
	</defs>
	<clipPath id="SVGID_4_">
		<use xlink:href="#SVGID_3_"  overflow="visible"/>
	</clipPath>
	<g clip-path="url(#SVGID_4_)">
		<path fill="#A1A8BF" d="M146.434,118.063v-2.544h-2.523c-0.347,0-0.591-0.285-0.591-0.711c0-0.407,0.244-0.733,0.591-0.733h2.523
			v-2.524c0-0.305,0.326-0.61,0.753-0.61c0.428,0,0.713,0.306,0.713,0.61v2.524h2.524c0.305,0,0.609,0.326,0.609,0.733
			c0,0.427-0.305,0.711-0.609,0.711h-2.524v2.544c0,0.347-0.285,0.591-0.713,0.591C146.76,118.653,146.434,118.409,146.434,118.063z
			"/>
	</g>
	<path clip-path="url(#SVGID_4_)" fill="none" stroke="#A1A8BF" stroke-width="1.5" d="M148.034,121.443
		c3.638,0,6.587-2.949,6.587-6.587c0-3.637-2.949-6.585-6.587-6.585s-14.173,6.585-14.173,6.585S144.396,121.443,148.034,121.443z"
		/>
</g>
<line fill="none" stroke="#FFF59F" stroke-width="1.163" x1="7.522" y1="-53.939" x2="134.535" y2="-53.939"/>
<g>
	<path fill="#FFF59F" d="M146.434-50.734v-2.545h-2.523c-0.347,0-0.591-0.285-0.591-0.713c0-0.406,0.244-0.732,0.591-0.732h2.523
		v-2.523c0-0.306,0.326-0.611,0.753-0.611c0.428,0,0.713,0.306,0.713,0.611v2.523h2.524c0.305,0,0.609,0.326,0.609,0.732
		c0,0.428-0.305,0.713-0.609,0.713h-2.524v2.545c0,0.346-0.285,0.59-0.713,0.59C146.76-50.144,146.434-50.388,146.434-50.734z"/>
</g>
<g>
	<defs>
		<rect id="SVGID_5_" x="-143" y="-104.024" width="298.371" height="228.467"/>
	</defs>
	<clipPath id="SVGID_6_">
		<use xlink:href="#SVGID_5_"  overflow="visible"/>
	</clipPath>
	<path clip-path="url(#SVGID_6_)" fill="none" stroke="#FFF59F" stroke-width="1.5" d="M148.034-47.353
		c3.638,0,6.587-2.949,6.587-6.587s-2.949-6.586-6.587-6.586s-14.173,6.586-14.173,6.586S144.396-47.353,148.034-47.353z"/>
</g>
<line fill="none" stroke="#9ED5EE" stroke-width="1.163" x1="7.522" y1="-20.39" x2="134.535" y2="-20.39"/>
<g>
	<path fill="#9ED5EE" d="M146.434-17.185v-2.544h-2.523c-0.346,0-0.59-0.285-0.59-0.712c0-0.407,0.244-0.733,0.59-0.733h2.523
		v-2.524c0-0.305,0.326-0.61,0.754-0.61s0.713,0.306,0.713,0.61v2.524h2.523c0.305,0,0.61,0.326,0.61,0.733
		c0,0.427-0.306,0.712-0.61,0.712H147.9v2.544c0,0.347-0.285,0.591-0.713,0.591S146.434-16.838,146.434-17.185z"/>
</g>
<g>
	<defs>
		<rect id="SVGID_7_" x="-143" y="-104.024" width="298.371" height="228.467"/>
	</defs>
	<clipPath id="SVGID_8_">
		<use xlink:href="#SVGID_7_"  overflow="visible"/>
	</clipPath>
	<path clip-path="url(#SVGID_8_)" fill="none" stroke="#9ED5EE" stroke-width="1.5" d="M148.034-13.804
		c3.638,0,6.587-2.948,6.587-6.587c0-3.638-2.949-6.586-6.587-6.586s-14.173,6.586-14.173,6.586S144.396-13.804,148.034-13.804z"/>
</g>
<line fill="none" stroke="#CDC4CB" stroke-width="1.163" x1="7.522" y1="13.739" x2="134.535" y2="13.739"/>
<g>
	<path fill="#CDC4CB" d="M146.434,16.944v-2.544h-2.523c-0.347,0-0.591-0.285-0.591-0.713c0-0.406,0.244-0.732,0.591-0.732h2.523
		V10.43c0-0.306,0.326-0.611,0.753-0.611c0.428,0,0.713,0.306,0.713,0.611v2.524h2.524c0.305,0,0.609,0.326,0.609,0.732
		c0,0.428-0.305,0.713-0.609,0.713h-2.524v2.544c0,0.346-0.285,0.59-0.713,0.59C146.76,17.534,146.434,17.29,146.434,16.944z"/>
</g>
<g>
	<defs>
		<rect id="SVGID_9_" x="-143" y="-104.024" width="298.371" height="228.467"/>
	</defs>
	<clipPath id="SVGID_10_">
		<use xlink:href="#SVGID_9_"  overflow="visible"/>
	</clipPath>
	<path clip-path="url(#SVGID_10_)" fill="none" stroke="#CDC4CB" stroke-width="1.5" d="M148.034,20.324
		c3.638,0,6.587-2.948,6.587-6.585c0-3.64-2.949-6.588-6.587-6.588s-14.173,6.588-14.173,6.588S144.396,20.324,148.034,20.324z"/>
</g>
<line fill="none" stroke="#E67D6D" stroke-width="1.163" x1="7.522" y1="47.571" x2="134.535" y2="47.571"/>
<g>
	<path fill="#E67D6D" d="M146.434,50.773v-2.542h-2.523c-0.347,0-0.591-0.285-0.591-0.712c0-0.406,0.244-0.732,0.591-0.732h2.523
		v-2.523c0-0.306,0.326-0.611,0.753-0.611c0.428,0,0.713,0.306,0.713,0.611v2.523h2.524c0.305,0,0.609,0.326,0.609,0.732
		c0,0.427-0.305,0.712-0.609,0.712h-2.524v2.542c0,0.346-0.285,0.59-0.713,0.59C146.76,51.363,146.434,51.119,146.434,50.773z"/>
</g>
<g>
	<defs>
		<rect id="SVGID_11_" x="-143" y="-104.024" width="298.371" height="228.467"/>
	</defs>
	<clipPath id="SVGID_12_">
		<use xlink:href="#SVGID_11_"  overflow="visible"/>
	</clipPath>
	<path clip-path="url(#SVGID_12_)" fill="none" stroke="#E67D6D" stroke-width="1.5" d="M148.034,54.153
		c3.638,0,6.587-2.949,6.587-6.582c0-3.637-2.949-6.585-6.587-6.585s-14.173,6.585-14.173,6.585S144.396,54.153,148.034,54.153z"/>
</g>
<line fill="none" stroke="#F2A390" stroke-width="1.163" x1="7.522" y1="81.4" x2="134.535" y2="81.4"/>
<g>
	<path fill="#F2A390" d="M146.434,84.605v-2.543h-2.523c-0.347,0-0.591-0.285-0.591-0.711c0-0.407,0.244-0.733,0.591-0.733h2.523
		v-2.524c0-0.305,0.326-0.61,0.753-0.61c0.428,0,0.713,0.306,0.713,0.61v2.524h2.524c0.305,0,0.609,0.326,0.609,0.733
		c0,0.426-0.305,0.711-0.609,0.711h-2.524v2.543c0,0.347-0.285,0.591-0.713,0.591C146.76,85.196,146.434,84.952,146.434,84.605z"/>
</g>
<g>
	<defs>
		<polyline id="SVGID_13_" points="-143,124.442 155.371,124.442 155.371,-104.024 		"/>
	</defs>
	<clipPath id="SVGID_14_">
		<use xlink:href="#SVGID_13_"  overflow="visible"/>
	</clipPath>
	<path clip-path="url(#SVGID_14_)" fill="none" stroke="#F2A390" stroke-width="1.5" d="M148.034,87.985
		c3.638,0,6.587-2.949,6.587-6.586s-2.949-6.585-6.587-6.585s-14.173,6.585-14.173,6.585S144.396,87.985,148.034,87.985z"/>
</g>
<text transform="matrix(1 0 0 1 -78.6719 215.624)" fill="#1A171B" font-family="'Dosis-Light'" font-size="9.3035"> </text>
</svg>
