<?xml version="1.0" encoding="utf-8"?>
<!-- Generator: Adobe Illustrator 16.0.0, SVG Export Plug-In . SVG Version: 6.00 Build 0)  -->
<!DOCTYPE svg PUBLIC "-//W3C//DTD SVG 1.1//EN" "http://www.w3.org/Graphics/SVG/1.1/DTD/svg11.dtd">
<svg version="1.1" id="Ebene_1" xmlns="http://www.w3.org/2000/svg" xmlns:xlink="http://www.w3.org/1999/xlink" x="0px" y="0px"
	 width="40px" height="28.039px" viewBox="163.5 0 40 28.039" enable-background="new 163.5 0 40 28.039" xml:space="preserve">
<path fill="#FFFFFF" d="M187.533,24.562c-5.66,0-21.105-9.615-21.762-10.023l-1.271-0.794l1.271-0.795
	c0.655-0.409,16.102-10.024,21.762-10.024c5.967,0,10.82,4.854,10.82,10.819C198.354,19.709,193.5,24.562,187.533,24.562z
	 M168.06,13.744c5.093,3.081,15.588,8.944,19.474,8.944c4.934,0,8.945-4.014,8.945-8.944c0-4.932-4.014-8.944-8.945-8.944
	C183.647,4.799,173.152,10.664,168.06,13.744z"/>
<path fill="#FFFFFF" d="M185.379,18.549V14.52h-4.03c-0.429,0-0.733-0.336-0.733-0.854c0-0.519,0.309-0.916,0.733-0.916h4.03V8.78
	c0-0.397,0.396-0.794,0.885-0.794c0.52,0,0.887,0.396,0.887,0.794v3.969h3.969c0.396,0,0.795,0.397,0.795,0.916
	c0,0.521-0.396,0.854-0.795,0.854h-3.969v4.029c0,0.428-0.367,0.73-0.887,0.73C185.775,19.282,185.379,18.977,185.379,18.549z"/>
</svg>
