<?xml version="1.0" encoding="utf-8"?>
<!-- Generator: Adobe Illustrator 15.0.0, SVG Export Plug-In . SVG Version: 6.00 Build 0)  -->
<!DOCTYPE svg PUBLIC "-//W3C//DTD SVG 1.1//EN" "http://www.w3.org/Graphics/SVG/1.1/DTD/svg11.dtd">
<svg version="1.1" id="Ebene_1" xmlns="http://www.w3.org/2000/svg" xmlns:xlink="http://www.w3.org/1999/xlink" x="0px" y="0px"
	 width="367px" height="28.038px" viewBox="0 0 367 28.038" enable-background="new 0 0 367 28.038" xml:space="preserve">
<line fill="none" stroke="black" stroke-width="1.163" x1="211.549" y1="-226.875" x2="338.563" y2="-226.875"/>
<g>
	<path fill="black" d="M350.434-223.669v-2.545h-2.523c-0.347,0-0.591-0.285-0.591-0.713c0-0.406,0.244-0.732,0.591-0.732h2.523
		v-2.523c0-0.306,0.326-0.611,0.753-0.611c0.428,0,0.713,0.306,0.713,0.611v2.523h2.524c0.305,0,0.609,0.326,0.609,0.732
		c0,0.428-0.305,0.713-0.609,0.713h-2.524v2.545c0,0.346-0.285,0.59-0.713,0.59C350.76-223.08,350.434-223.324,350.434-223.669z"/>
</g>
<g>
	<defs>
		<rect id="SVGID_1_" x="61" y="-242.944" width="298.371" height="228.465"/>
	</defs>
	<clipPath id="SVGID_2_">
		<use xlink:href="#SVGID_1_"  overflow="visible"/>
	</clipPath>
	<path clip-path="url(#SVGID_2_)" fill="none" stroke="black" stroke-width="1.5" d="M352.034-220.288
		c3.638,0,6.587-2.949,6.587-6.588c0-3.638-2.949-6.586-6.587-6.586s-14.173,6.586-14.173,6.586S348.396-220.288,352.034-220.288z"
		/>
</g>
<line fill="none" stroke="black" stroke-width="1.163" x1="211.522" y1="-24.063" x2="338.535" y2="-24.063"/>
<g>
	<defs>
		<rect id="SVGID_3_" x="61" y="-242.944" width="298.371" height="228.465"/>
	</defs>
	<clipPath id="SVGID_4_">
		<use xlink:href="#SVGID_3_"  overflow="visible"/>
	</clipPath>
	<g clip-path="url(#SVGID_4_)">
		<path fill="black" d="M350.434-20.857v-2.544h-2.523c-0.347,0-0.591-0.285-0.591-0.711c0-0.407,0.244-0.733,0.591-0.733h2.523
			v-2.524c0-0.305,0.326-0.61,0.753-0.61c0.428,0,0.713,0.306,0.713,0.61v2.524h2.524c0.305,0,0.609,0.326,0.609,0.733
			c0,0.427-0.305,0.711-0.609,0.711h-2.524v2.544c0,0.346-0.285,0.59-0.713,0.59C350.76-20.267,350.434-20.511,350.434-20.857z"/>
	</g>
	<path clip-path="url(#SVGID_4_)" fill="none" stroke="black" stroke-width="1.5" d="M352.034-17.478
		c3.638,0,6.587-2.949,6.587-6.586c0-3.637-2.949-6.585-6.587-6.585s-14.173,6.585-14.173,6.585S348.396-17.478,352.034-17.478z"/>
</g>
<line fill="none" stroke="#FFF59F" stroke-width="1.163" x1="211.522" y1="-192.859" x2="338.535" y2="-192.859"/>
<g>
	<path fill="#FFF59F" d="M350.434-189.654v-2.545h-2.523c-0.347,0-0.591-0.285-0.591-0.713c0-0.406,0.244-0.732,0.591-0.732h2.523
		v-2.523c0-0.306,0.326-0.611,0.753-0.611c0.428,0,0.713,0.306,0.713,0.611v2.523h2.524c0.305,0,0.609,0.326,0.609,0.732
		c0,0.428-0.305,0.713-0.609,0.713h-2.524v2.545c0,0.346-0.285,0.59-0.713,0.59C350.76-189.064,350.434-189.308,350.434-189.654z"/>
</g>
<g>
	<defs>
		<rect id="SVGID_5_" x="61" y="-242.944" width="298.371" height="228.465"/>
	</defs>
	<clipPath id="SVGID_6_">
		<use xlink:href="#SVGID_5_"  overflow="visible"/>
	</clipPath>
	<path clip-path="url(#SVGID_6_)" fill="none" stroke="#FFF59F" stroke-width="1.5" d="M352.034-186.272
		c3.638,0,6.587-2.949,6.587-6.587s-2.949-6.586-6.587-6.586s-14.173,6.586-14.173,6.586S348.396-186.272,352.034-186.272z"/>
</g>
<line fill="none" stroke="#9ED5EE" stroke-width="1.163" x1="211.522" y1="-159.31" x2="338.535" y2="-159.31"/>
<g>
	<path fill="#9ED5EE" d="M350.434-156.105v-2.544h-2.523c-0.346,0-0.59-0.285-0.59-0.712c0-0.407,0.244-0.733,0.59-0.733h2.523
		v-2.524c0-0.305,0.326-0.61,0.754-0.61s0.713,0.306,0.713,0.61v2.524h2.523c0.305,0,0.61,0.326,0.61,0.733
		c0,0.427-0.306,0.712-0.61,0.712H351.9v2.544c0,0.347-0.285,0.591-0.713,0.591S350.434-155.758,350.434-156.105z"/>
</g>
<g>
	<defs>
		<rect id="SVGID_7_" x="61" y="-242.944" width="298.371" height="228.465"/>
	</defs>
	<clipPath id="SVGID_8_">
		<use xlink:href="#SVGID_7_"  overflow="visible"/>
	</clipPath>
	<path clip-path="url(#SVGID_8_)" fill="none" stroke="#9ED5EE" stroke-width="1.5" d="M352.034-152.724
		c3.638,0,6.587-2.948,6.587-6.587c0-3.638-2.949-6.586-6.587-6.586s-14.173,6.586-14.173,6.586S348.396-152.724,352.034-152.724z"
		/>
</g>
<line fill="none" stroke="#CDC4CB" stroke-width="1.163" x1="211.522" y1="-125.181" x2="338.535" y2="-125.181"/>
<g>
	<path fill="#CDC4CB" d="M350.434-121.976v-2.544h-2.523c-0.347,0-0.591-0.285-0.591-0.713c0-0.406,0.244-0.732,0.591-0.732h2.523
		v-2.524c0-0.306,0.326-0.611,0.753-0.611c0.428,0,0.713,0.306,0.713,0.611v2.524h2.524c0.305,0,0.609,0.326,0.609,0.732
		c0,0.428-0.305,0.713-0.609,0.713h-2.524v2.544c0,0.346-0.285,0.59-0.713,0.59C350.76-121.386,350.434-121.63,350.434-121.976z"/>
</g>
<g>
	<defs>
		<rect id="SVGID_9_" x="61" y="-242.944" width="298.371" height="228.465"/>
	</defs>
	<clipPath id="SVGID_10_">
		<use xlink:href="#SVGID_9_"  overflow="visible"/>
	</clipPath>
	<path clip-path="url(#SVGID_10_)" fill="none" stroke="#CDC4CB" stroke-width="1.5" d="M352.034-118.596
		c3.638,0,6.587-2.948,6.587-6.585c0-3.64-2.949-6.588-6.587-6.588s-14.173,6.588-14.173,6.588S348.396-118.596,352.034-118.596z"/>
</g>
<line fill="none" stroke="#E67D6D" stroke-width="1.163" x1="211.522" y1="-91.349" x2="338.535" y2="-91.349"/>
<g>
	<path fill="#E67D6D" d="M350.434-88.146v-2.542h-2.523c-0.347,0-0.591-0.285-0.591-0.712c0-0.406,0.244-0.732,0.591-0.732h2.523
		v-2.523c0-0.306,0.326-0.611,0.753-0.611c0.428,0,0.713,0.306,0.713,0.611v2.523h2.524c0.305,0,0.609,0.326,0.609,0.732
		c0,0.427-0.305,0.712-0.609,0.712h-2.524v2.542c0,0.346-0.285,0.59-0.713,0.59C350.76-87.557,350.434-87.801,350.434-88.146z"/>
</g>
<g>
	<defs>
		<rect id="SVGID_11_" x="61" y="-242.944" width="298.371" height="228.465"/>
	</defs>
	<clipPath id="SVGID_12_">
		<use xlink:href="#SVGID_11_"  overflow="visible"/>
	</clipPath>
	<path clip-path="url(#SVGID_12_)" fill="none" stroke="#E67D6D" stroke-width="1.5" d="M352.034-84.767
		c3.638,0,6.587-2.949,6.587-6.582c0-3.637-2.949-6.585-6.587-6.585s-14.173,6.585-14.173,6.585S348.396-84.767,352.034-84.767z"/>
</g>
<line fill="none" stroke="#F2A390" stroke-width="1.163" x1="211.522" y1="-57.52" x2="338.535" y2="-57.52"/>
<g>
	<path fill="#F2A390" d="M350.434-54.315v-2.543h-2.523c-0.347,0-0.591-0.285-0.591-0.711c0-0.407,0.244-0.733,0.591-0.733h2.523
		v-2.524c0-0.305,0.326-0.61,0.753-0.61c0.428,0,0.713,0.306,0.713,0.61v2.524h2.524c0.305,0,0.609,0.326,0.609,0.733
		c0,0.426-0.305,0.711-0.609,0.711h-2.524v2.543c0,0.347-0.285,0.591-0.713,0.591C350.76-53.724,350.434-53.968,350.434-54.315z"/>
</g>
<g>
	<defs>
		<polyline id="SVGID_13_" points="61,-14.479 359.371,-14.479 359.371,-242.944 		"/>
	</defs>
	<clipPath id="SVGID_14_">
		<use xlink:href="#SVGID_13_"  overflow="visible"/>
	</clipPath>
	<path clip-path="url(#SVGID_14_)" fill="none" stroke="#F2A390" stroke-width="1.5" d="M352.034-50.935
		c3.638,0,6.587-2.949,6.587-6.586s-2.949-6.585-6.587-6.585s-14.173,6.585-14.173,6.585S348.396-50.935,352.034-50.935z"/>
</g>
<text transform="matrix(1 0 0 1 125.3281 215.624)" fill="#1A171B" font-family="'Dosis-Light'" font-size="9.3035"> </text>
<g>
	<defs>
		<rect id="SVGID_15_" x="5.49" y="-9.72" width="355.935" height="34.924"/>
	</defs>
	<clipPath id="SVGID_16_">
		<use xlink:href="#SVGID_15_"  overflow="visible"/>
	</clipPath>
	
		<line clip-path="url(#SVGID_16_)" fill="none" stroke="#FFFFFF" stroke-width="2" x1="5.49" y1="14.385" x2="330.803" y2="14.385"/>
	<g clip-path="url(#SVGID_16_)">
		<path fill="#FFFFFF" d="M348.449,19.192v-4.03h-4.03c-0.428,0-0.733-0.336-0.733-0.855c0-0.519,0.306-0.916,0.733-0.916h4.03
			V9.422c0-0.397,0.396-0.794,0.885-0.794c0.52,0,0.886,0.396,0.886,0.794v3.969h3.97c0.396,0,0.794,0.397,0.794,0.916
			c0,0.52-0.397,0.855-0.794,0.855h-3.97v4.03c0,0.427-0.366,0.732-0.886,0.732C348.846,19.925,348.449,19.619,348.449,19.192z"/>
	</g>
	<path clip-path="url(#SVGID_16_)" fill="none" stroke="#FFFFFF" stroke-width="1.875" d="M350.604,24.267
		c5.458,0,9.882-4.424,9.882-9.881s-4.424-9.881-9.882-9.881s-21.265,9.881-21.265,9.881S345.146,24.267,350.604,24.267z"/>
</g>
</svg>
