<?xml version="1.0" encoding="utf-8"?>
<!-- Generator: Adobe Illustrator 15.0.0, SVG Export Plug-In . SVG Version: 6.00 Build 0)  -->
<!DOCTYPE svg PUBLIC "-//W3C//DTD SVG 1.1//EN" "http://www.w3.org/Graphics/SVG/1.1/DTD/svg11.dtd">
<svg version="1.1" id="Ebene_1" xmlns="http://www.w3.org/2000/svg" xmlns:xlink="http://www.w3.org/1999/xlink" x="0px" y="0px"
	 width="15.042px" height="15.083px" viewBox="0 0 15.042 15.083" enable-background="new 0 0 15.042 15.083" xml:space="preserve">
<line fill="none" stroke="#A1A8BF" stroke-width="1.163" x1="59.341" y1="-235.655" x2="186.354" y2="-235.655"/>
<g>
	<path fill="#A1A8BF" d="M198.225-232.449v-2.545h-2.523c-0.347,0-0.591-0.285-0.591-0.713c0-0.406,0.244-0.732,0.591-0.732h2.523
		v-2.523c0-0.306,0.326-0.611,0.753-0.611c0.428,0,0.713,0.306,0.713,0.611v2.523h2.524c0.305,0,0.609,0.326,0.609,0.732
		c0,0.428-0.305,0.713-0.609,0.713h-2.524v2.545c0,0.346-0.285,0.59-0.713,0.59C198.551-231.859,198.225-232.104,198.225-232.449z"
		/>
</g>
<g>
	<defs>
		<rect id="SVGID_1_" x="-91.209" y="-183.759" width="298.372" height="228.465"/>
	</defs>
	<clipPath id="SVGID_2_">
		<use xlink:href="#SVGID_1_"  overflow="visible"/>
	</clipPath>
	<path clip-path="url(#SVGID_2_)" fill="none" stroke="#A1A8BF" stroke-width="1.5" d="M199.825-161.103
		c3.639,0,6.588-2.949,6.588-6.588c0-3.638-2.949-6.586-6.588-6.586c-3.637,0-14.172,6.586-14.172,6.586
		S196.188-161.103,199.825-161.103z"/>
</g>
<line fill="none" stroke="#A1A8BF" stroke-width="1.163" x1="59.314" y1="-32.843" x2="186.327" y2="-32.843"/>
<g>
	<defs>
		<rect id="SVGID_3_" x="-91.875" y="-172.316" width="298.372" height="228.465"/>
	</defs>
	<clipPath id="SVGID_4_">
		<use xlink:href="#SVGID_3_"  overflow="visible"/>
	</clipPath>
	<g clip-path="url(#SVGID_4_)">
		<path fill="#A1A8BF" d="M197.559,49.771v-2.544h-2.523c-0.348,0-0.592-0.285-0.592-0.711c0-0.407,0.244-0.733,0.592-0.733h2.523
			v-2.524c0-0.305,0.326-0.61,0.752-0.61c0.428,0,0.713,0.306,0.713,0.61v2.524h2.525c0.305,0,0.609,0.326,0.609,0.733
			c0,0.427-0.305,0.711-0.609,0.711h-2.525v2.544c0,0.346-0.285,0.59-0.713,0.59C197.885,50.361,197.559,50.117,197.559,49.771z"/>
	</g>
	<path clip-path="url(#SVGID_4_)" fill="none" stroke="#A1A8BF" stroke-width="1.5" d="M199.159,53.15
		c3.639,0,6.588-2.949,6.588-6.586c0-3.637-2.949-6.585-6.588-6.585c-3.637,0-14.172,6.585-14.172,6.585
		S195.522,53.15,199.159,53.15z"/>
</g>
<line fill="none" stroke="#FFF59F" stroke-width="1.163" x1="59.314" y1="-201.639" x2="186.327" y2="-201.639"/>
<g>
	<path fill="#FFF59F" d="M198.225-198.434v-2.545h-2.523c-0.347,0-0.591-0.285-0.591-0.713c0-0.406,0.244-0.732,0.591-0.732h2.523
		v-2.523c0-0.306,0.326-0.611,0.753-0.611c0.428,0,0.713,0.306,0.713,0.611v2.523h2.524c0.305,0,0.609,0.326,0.609,0.732
		c0,0.428-0.305,0.713-0.609,0.713h-2.524v2.545c0,0.346-0.285,0.59-0.713,0.59C198.551-197.844,198.225-198.088,198.225-198.434z"
		/>
</g>
<g>
	<defs>
		<rect id="SVGID_5_" x="-89.871" y="-178.149" width="298.372" height="228.465"/>
	</defs>
	<clipPath id="SVGID_6_">
		<use xlink:href="#SVGID_5_"  overflow="visible"/>
	</clipPath>
	<path clip-path="url(#SVGID_6_)" fill="none" stroke="#FFF59F" stroke-width="1.5" d="M201.163-121.478
		c3.639,0,6.588-2.949,6.588-6.587s-2.949-6.586-6.588-6.586c-3.637,0-14.172,6.586-14.172,6.586S197.526-121.478,201.163-121.478z"
		/>
</g>
<line fill="none" stroke="#9ED5EE" stroke-width="1.163" x1="59.314" y1="-168.089" x2="186.327" y2="-168.089"/>
<g>
	<path fill="#9ED5EE" d="M198.225-164.885v-2.544h-2.523c-0.346,0-0.59-0.285-0.59-0.712c0-0.407,0.244-0.733,0.59-0.733h2.523
		v-2.524c0-0.305,0.326-0.61,0.754-0.61s0.713,0.306,0.713,0.61v2.524h2.523c0.305,0,0.61,0.326,0.61,0.733
		c0,0.427-0.306,0.712-0.61,0.712h-2.523v2.544c0,0.347-0.285,0.591-0.713,0.591S198.225-164.538,198.225-164.885z"/>
</g>
<g>
	<defs>
		<rect id="SVGID_7_" x="-89.872" y="-172.316" width="298.371" height="228.465"/>
	</defs>
	<clipPath id="SVGID_8_">
		<use xlink:href="#SVGID_7_"  overflow="visible"/>
	</clipPath>
	<path clip-path="url(#SVGID_8_)" fill="none" stroke="#9ED5EE" stroke-width="1.5" d="M201.163-82.096
		c3.638,0,6.587-2.948,6.587-6.587c0-3.638-2.949-6.586-6.587-6.586s-14.173,6.586-14.173,6.586S197.525-82.096,201.163-82.096z"/>
</g>
<line fill="none" stroke="#CDC4CB" stroke-width="1.163" x1="59.314" y1="-133.96" x2="186.327" y2="-133.96"/>
<g>
	<path fill="#CDC4CB" d="M198.225-130.756v-2.544h-2.523c-0.347,0-0.591-0.285-0.591-0.713c0-0.406,0.244-0.732,0.591-0.732h2.523
		v-2.524c0-0.306,0.326-0.611,0.753-0.611c0.428,0,0.713,0.306,0.713,0.611v2.524h2.524c0.305,0,0.609,0.326,0.609,0.732
		c0,0.428-0.305,0.713-0.609,0.713h-2.524v2.544c0,0.346-0.285,0.59-0.713,0.59C198.551-130.166,198.225-130.41,198.225-130.756z"/>
</g>
<g>
	<defs>
		<rect id="SVGID_9_" x="-89.871" y="-163.316" width="298.372" height="228.465"/>
	</defs>
	<clipPath id="SVGID_10_">
		<use xlink:href="#SVGID_9_"  overflow="visible"/>
	</clipPath>
	<path clip-path="url(#SVGID_10_)" fill="none" stroke="#CDC4CB" stroke-width="1.5" d="M201.163-38.968
		c3.639,0,6.588-2.948,6.588-6.585c0-3.64-2.949-6.588-6.588-6.588c-3.637,0-14.172,6.588-14.172,6.588
		S197.526-38.968,201.163-38.968z"/>
</g>
<line fill="none" stroke="#E67D6D" stroke-width="1.163" x1="59.314" y1="-100.128" x2="186.327" y2="-100.128"/>
<g>
	<path fill="#E67D6D" d="M198.225-96.926v-2.542h-2.523c-0.347,0-0.591-0.285-0.591-0.712c0-0.406,0.244-0.732,0.591-0.732h2.523
		v-2.523c0-0.306,0.326-0.611,0.753-0.611c0.428,0,0.713,0.306,0.713,0.611v2.523h2.524c0.305,0,0.609,0.326,0.609,0.732
		c0,0.427-0.305,0.712-0.609,0.712h-2.524v2.542c0,0.346-0.285,0.59-0.713,0.59C198.551-96.336,198.225-96.581,198.225-96.926z"/>
</g>
<g>
	<defs>
		<rect id="SVGID_11_" x="-91.208" y="-165.316" width="298.371" height="228.465"/>
	</defs>
	<clipPath id="SVGID_12_">
		<use xlink:href="#SVGID_11_"  overflow="visible"/>
	</clipPath>
	<path clip-path="url(#SVGID_12_)" fill="none" stroke="#E67D6D" stroke-width="1.5" d="M199.827-7.139
		c3.637,0,6.586-2.949,6.586-6.582c0-3.637-2.949-6.585-6.586-6.585c-3.639,0-14.174,6.585-14.174,6.585
		S196.188-7.139,199.827-7.139z"/>
</g>
<line fill="none" stroke="#F2A390" stroke-width="1.163" x1="59.314" y1="-66.299" x2="186.327" y2="-66.299"/>
<g>
	<path fill="#F2A390" d="M198.225-63.095v-2.543h-2.523c-0.347,0-0.591-0.285-0.591-0.711c0-0.407,0.244-0.733,0.591-0.733h2.523
		v-2.524c0-0.305,0.326-0.61,0.753-0.61c0.428,0,0.713,0.306,0.713,0.61v2.524h2.524c0.305,0,0.609,0.326,0.609,0.733
		c0,0.426-0.305,0.711-0.609,0.711h-2.524v2.543c0,0.347-0.285,0.591-0.713,0.591C198.551-62.504,198.225-62.748,198.225-63.095z"/>
</g>
<g>
	<defs>
		<polyline id="SVGID_13_" points="-89.871,63.149 208.5,63.149 208.5,-165.316 		"/>
	</defs>
	<clipPath id="SVGID_14_">
		<use xlink:href="#SVGID_13_"  overflow="visible"/>
	</clipPath>
	<path clip-path="url(#SVGID_14_)" fill="none" stroke="#F2A390" stroke-width="1.5" d="M201.163,26.693
		c3.639,0,6.588-2.949,6.588-6.586s-2.949-6.585-6.588-6.585c-3.637,0-14.172,6.585-14.172,6.585S197.526,26.693,201.163,26.693z"/>
</g>
<text transform="matrix(1 0 0 1 -26.8804 206.8442)" fill="#1A171B" font-family="'Dosis-Light'" font-size="9.3035"> </text>
<g>
	<defs>
		<rect id="SVGID_15_" x="-133.052" y="53.059" width="355.936" height="34.924"/>
	</defs>
	<clipPath id="SVGID_16_">
		<use xlink:href="#SVGID_15_"  overflow="visible"/>
	</clipPath>
	
		<line clip-path="url(#SVGID_16_)" fill="none" stroke="#FFFFFF" stroke-width="2" x1="-133.052" y1="77.164" x2="192.26" y2="77.164"/>
	<g clip-path="url(#SVGID_16_)">
		<path fill="#FFFFFF" d="M209.907,81.971v-4.03h-4.029c-0.428,0-0.734-0.336-0.734-0.855c0-0.519,0.307-0.916,0.734-0.916h4.029
			v-3.969c0-0.397,0.396-0.794,0.885-0.794c0.52,0,0.887,0.396,0.887,0.794v3.969h3.969c0.396,0,0.795,0.397,0.795,0.916
			c0,0.52-0.398,0.855-0.795,0.855h-3.969v4.03c0,0.427-0.367,0.732-0.887,0.732C210.303,82.704,209.907,82.398,209.907,81.971z"/>
	</g>
	<path clip-path="url(#SVGID_16_)" fill="none" stroke="#FFFFFF" stroke-width="1.875" d="M212.063,87.045
		c5.457,0,9.881-4.424,9.881-9.881s-4.424-9.881-9.881-9.881c-5.459,0-21.266,9.881-21.266,9.881S206.604,87.045,212.063,87.045z"/>
</g>
<g>
	<defs>
		<rect id="SVGID_17_" x="-8.916" y="-1.362" width="32.824" height="67.781"/>
	</defs>
	<clipPath id="SVGID_18_">
		<use xlink:href="#SVGID_17_"  overflow="visible"/>
	</clipPath>
	<circle clip-path="url(#SVGID_18_)" fill="none" stroke="#FFF59F" stroke-width="1.215" cx="7.496" cy="32.582" r="6.804"/>
</g>
<polygon fill="#FFF59F" points="6.216,29.042 6.216,36.124 10.193,32.583 "/>
<g>
	<defs>
		<rect id="SVGID_19_" x="-8.916" y="-1.362" width="32.824" height="67.781"/>
	</defs>
	<clipPath id="SVGID_20_">
		<use xlink:href="#SVGID_19_"  overflow="visible"/>
	</clipPath>
	<circle clip-path="url(#SVGID_20_)" fill="none" stroke="#FFF59F" stroke-width="1.215" cx="7.496" cy="58.008" r="6.804"/>
</g>
<text transform="matrix(1 0 0 1 3.7295 9.2563)" fill="#1A171B" font-family="'MinionPro-Regular'" font-size="9.7208"> </text>
<g>
	<defs>
		<rect id="SVGID_21_" x="-8.916" y="-1.362" width="32.824" height="67.781"/>
	</defs>
	<clipPath id="SVGID_22_">
		<use xlink:href="#SVGID_21_"  overflow="visible"/>
	</clipPath>
	<circle clip-path="url(#SVGID_22_)" fill="none" stroke="#FFF59F" stroke-width="1.215" cx="7.496" cy="7.572" r="6.804"/>
</g>
<g>
	<path fill="#FFF59F" d="M8.067,4.554c0,0.361-0.339,0.689-0.766,0.689c-0.438,0-0.777-0.328-0.777-0.689
		c0-0.372,0.339-0.689,0.777-0.689C7.728,3.865,8.067,4.182,8.067,4.554z M8.013,6.841v4.311c0,0.219-0.317,0.448-0.711,0.448
		c-0.405,0-0.7-0.229-0.7-0.448V6.841c0-0.263,0.295-0.438,0.7-0.438C7.695,6.404,8.013,6.579,8.013,6.841z"/>
</g>
<line fill="none" stroke="#FFF59F" stroke-width="1.058" x1="4.196" y1="55.38" x2="8.713" y2="55.38"/>
<line fill="none" stroke="#FFF59F" stroke-width="1.058" x1="4.196" y1="57.529" x2="10.796" y2="57.529"/>
<line fill="none" stroke="#FFF59F" stroke-width="1.058" x1="4.196" y1="59.103" x2="10.796" y2="59.103"/>
<line fill="none" stroke="#FFF59F" stroke-width="1.058" x1="4.196" y1="60.677" x2="10.796" y2="60.677"/>
</svg>
