<?xml version="1.0" encoding="utf-8"?>
<!-- Generator: Adobe Illustrator 15.0.0, SVG Export Plug-In . SVG Version: 6.00 Build 0)  -->
<!DOCTYPE svg PUBLIC "-//W3C//DTD SVG 1.1//EN" "http://www.w3.org/Graphics/SVG/1.1/DTD/svg11.dtd">
<svg version="1.1" id="Ebene_1" xmlns="http://www.w3.org/2000/svg" xmlns:xlink="http://www.w3.org/1999/xlink" x="0px" y="0px"
	 width="166px" height="28.038px" viewBox="0 0 166 28.038" enable-background="new 0 0 166 28.038" xml:space="preserve">
<text transform="matrix(1 0 0 1 -75.6719 215.624)" fill="#1A171B" font-family="'Dosis-Light'" font-size="9.3035"> </text>
<g>
	<defs>
		<path id="SVGID_1_" d="M160.425,63.692"/>
	</defs>
	<defs>
		<path id="SVGID_2_" d="M160.425,98.616"/>
	</defs>
	<clipPath id="SVGID_3_">
		<use xlink:href="#SVGID_1_"  overflow="visible"/>
	</clipPath>
	<clipPath id="SVGID_4_" clip-path="url(#SVGID_3_)">
		<use xlink:href="#SVGID_2_"  overflow="visible"/>
	</clipPath>
	<g clip-path="url(#SVGID_4_)">
		<path fill="#FFFFFF" d="M149.604,98.617"/>
	</g>
</g>
<g>
	<path fill="#FFFFFF" d="M149.6,76.981c-5.279,0-19.09,8.38-21.439,9.82h-323.67v2H128.18c2.4,1.48,16.15,9.82,21.42,9.82
		c5.971,0,10.82-4.86,10.82-10.82C160.42,81.831,155.57,76.981,149.6,76.981z M149.6,96.741c-3.88,0-14.38-5.86-19.47-8.94
		c5.09-3.08,15.59-8.95,19.47-8.95c4.94,0,8.95,4.02,8.95,8.95C158.55,92.731,154.54,96.741,149.6,96.741z"/>
</g>
<g>
	<g>
		<path fill="#FFFFFF" d="M147.449,92.605v-4.03h-4.03c-0.428,0-0.733-0.336-0.733-0.855c0-0.519,0.306-0.916,0.733-0.916h4.03
			v-3.969c0-0.397,0.396-0.794,0.885-0.794c0.52,0,0.886,0.396,0.886,0.794v3.969h3.97c0.396,0,0.794,0.397,0.794,0.916
			c0,0.52-0.397,0.855-0.794,0.855h-3.97v4.03c0,0.427-0.366,0.732-0.886,0.732C147.846,93.337,147.449,93.032,147.449,92.605z"/>
	</g>
</g>
<path fill="none" d="M160.425,98.616"/>
<g>
	<path fill="#A1A8BF" d="M151.03-160.799c-3.74,0-13.471,6.01-14.57,6.7l-0.09,0.06H10.55v1.16h125.83l0.08,0.05
		c1.1,0.69,10.83,6.7,14.57,6.7c4.05,0,7.34-3.29,7.34-7.33C158.37-157.509,155.08-160.799,151.03-160.799z M151.03-147.629
		c-2.511,0-9.29-3.76-12.73-5.83c3.44-2.08,10.21-5.84,12.73-5.84c3.22,0,5.84,2.62,5.84,5.84
		C156.87-150.249,154.25-147.629,151.03-147.629z"/>
</g>
<g>
	<g>
		<path fill="#A1A8BF" d="M149.434-150.257v-2.545h-2.523c-0.347,0-0.591-0.285-0.591-0.713c0-0.406,0.244-0.732,0.591-0.732h2.523
			v-2.523c0-0.306,0.326-0.611,0.753-0.611c0.428,0,0.713,0.306,0.713,0.611v2.523h2.524c0.305,0,0.609,0.326,0.609,0.732
			c0,0.428-0.305,0.713-0.609,0.713h-2.524v2.545c0,0.346-0.285,0.59-0.713,0.59C149.76-149.667,149.434-149.911,149.434-150.257z"
			/>
	</g>
</g>
<path fill="#A1A8BF" d="M158.371,58.934L158.371,58.934z"/>
<g>
	<path fill="#A1A8BF" d="M151.03,42.011c-3.74,0-13.471,6.02-14.57,6.7l-0.09,0.06H10.52v1.16h125.86l0.08,0.05
		c1.1,0.69,10.83,6.7,14.57,6.7c4.05,0,7.34-3.29,7.34-7.33C158.37,45.301,155.08,42.011,151.03,42.011z M151.03,55.181
		c-2.511,0-9.29-3.76-12.73-5.83c3.44-2.07,10.22-5.84,12.73-5.84c3.22,0,5.84,2.62,5.84,5.84
		C156.87,52.571,154.25,55.181,151.03,55.181z"/>
	<path fill="#A1A8BF" d="M154.03,49.301c0,0.43-0.3,0.71-0.61,0.71h-2.52v2.54c0,0.35-0.29,0.59-0.71,0.59
		c-0.431,0-0.761-0.24-0.761-0.59v-2.54h-2.52c-0.351,0-0.59-0.28-0.59-0.71c0-0.41,0.239-0.73,0.59-0.73h2.52v-2.53
		c0-0.3,0.33-0.61,0.761-0.61c0.42,0,0.71,0.31,0.71,0.61v2.53h2.52C153.73,48.571,154.03,48.891,154.03,49.301z"/>
</g>
<path fill="#A1A8BF" d="M158.371,58.934L158.371,58.934z"/>
<g>
	<path fill="#FFF59F" d="M151.03-126.779c-3.74,0-13.471,6.01-14.57,6.7l-0.08,0.05H10.52v1.16h125.85l0.09,0.06
		c1.1,0.68,10.83,6.7,14.57,6.7c4.05,0,7.34-3.29,7.34-7.34C158.37-123.489,155.08-126.779,151.03-126.779z M151.03-113.609
		c-2.511,0-9.29-3.76-12.73-5.84c3.44-2.07,10.21-5.83,12.73-5.83c3.22,0,5.84,2.61,5.84,5.83
		C156.87-116.229,154.25-113.609,151.03-113.609z"/>
</g>
<g>
	<g>
		<path fill="#FFF59F" d="M149.434-116.241v-2.545h-2.523c-0.347,0-0.591-0.285-0.591-0.713c0-0.406,0.244-0.732,0.591-0.732h2.523
			v-2.523c0-0.306,0.326-0.611,0.753-0.611c0.428,0,0.713,0.306,0.713,0.611v2.523h2.524c0.305,0,0.609,0.326,0.609,0.732
			c0,0.428-0.305,0.713-0.609,0.713h-2.524v2.545c0,0.346-0.285,0.59-0.713,0.59C149.76-115.651,149.434-115.896,149.434-116.241z"
			/>
	</g>
</g>
<path fill="#A1A8BF" d="M158.371,58.934L158.371,58.934z"/>
<g>
	<path fill="#9ED5EE" d="M151.03-93.229c-3.74,0-13.471,6.01-14.57,6.7l-0.08,0.05H10.52v1.16h125.85l0.09,0.06
		c1.1,0.68,10.83,6.7,14.57,6.7c4.05,0,7.34-3.29,7.34-7.34C158.37-89.939,155.08-93.229,151.03-93.229z M151.03-80.059
		c-2.511,0-9.29-3.77-12.73-5.84c3.44-2.07,10.21-5.83,12.73-5.83c3.22,0,5.84,2.61,5.84,5.83
		C156.87-82.679,154.25-80.059,151.03-80.059z"/>
</g>
<g>
	<g>
		<path fill="#9ED5EE" d="M149.434-82.692v-2.544h-2.523c-0.346,0-0.59-0.285-0.59-0.712c0-0.407,0.244-0.733,0.59-0.733h2.523
			v-2.524c0-0.305,0.326-0.61,0.754-0.61s0.713,0.306,0.713,0.61v2.524h2.523c0.305,0,0.61,0.326,0.61,0.733
			c0,0.427-0.306,0.712-0.61,0.712H150.9v2.544c0,0.347-0.285,0.591-0.713,0.591S149.434-82.346,149.434-82.692z"/>
	</g>
</g>
<path fill="#A1A8BF" d="M158.371,58.934L158.371,58.934z"/>
<g>
	<path fill="#CDC4CB" d="M151.03-59.109c-3.74,0-13.471,6.02-14.57,6.71l-0.08,0.05H10.52v1.16h125.85l0.09,0.06
		c1.1,0.68,10.83,6.7,14.57,6.7c4.05,0,7.34-3.29,7.34-7.34C158.37-55.809,155.08-59.109,151.03-59.109z M151.03-45.929
		c-2.511,0-9.29-3.77-12.73-5.84c3.44-2.07,10.22-5.84,12.73-5.84c3.22,0,5.84,2.62,5.84,5.84
		C156.87-48.549,154.25-45.929,151.03-45.929z"/>
</g>
<g>
	<g>
		<path fill="#CDC4CB" d="M149.434-48.563v-2.544h-2.523c-0.347,0-0.591-0.285-0.591-0.713c0-0.406,0.244-0.732,0.591-0.732h2.523
			v-2.524c0-0.306,0.326-0.611,0.753-0.611c0.428,0,0.713,0.306,0.713,0.611v2.524h2.524c0.305,0,0.609,0.326,0.609,0.732
			c0,0.428-0.305,0.713-0.609,0.713h-2.524v2.544c0,0.346-0.285,0.59-0.713,0.59C149.76-47.974,149.434-48.218,149.434-48.563z"/>
	</g>
</g>
<g>
	<path fill="#E67D6D" d="M151.03-25.269c-3.74,0-13.471,6.01-14.57,6.7l-0.08,0.05H10.52v1.16h125.85l0.09,0.06
		c1.1,0.68,10.83,6.69,14.57,6.69c4.05,0,7.34-3.28,7.34-7.33C158.37-21.979,155.08-25.269,151.03-25.269z M151.03-12.109
		c-2.511,0-9.29-3.76-12.73-5.83c3.44-2.07,10.22-5.83,12.73-5.83c3.22,0,5.84,2.62,5.84,5.83
		C156.87-14.719,154.25-12.109,151.03-12.109z"/>
</g>
<g>
	<g>
		<path fill="#E67D6D" d="M149.434-14.734v-2.542h-2.523c-0.347,0-0.591-0.285-0.591-0.712c0-0.406,0.244-0.732,0.591-0.732h2.523
			v-2.523c0-0.306,0.326-0.611,0.753-0.611c0.428,0,0.713,0.306,0.713,0.611v2.523h2.524c0.305,0,0.609,0.326,0.609,0.732
			c0,0.427-0.305,0.712-0.609,0.712h-2.524v2.542c0,0.346-0.285,0.59-0.713,0.59C149.76-14.144,149.434-14.388,149.434-14.734z"/>
	</g>
</g>
<g>
	<path fill="#F2A390" d="M151.03,8.561c-3.74,0-13.471,6.01-14.57,6.69l-0.09,0.06H10.52v1.16h125.85l0.09,0.06
		c1.1,0.68,10.83,6.7,14.57,6.7c4.05,0,7.34-3.29,7.34-7.34C158.37,11.851,155.08,8.561,151.03,8.561z M151.03,21.731
		c-2.511,0-9.29-3.77-12.73-5.84c3.44-2.07,10.22-5.83,12.73-5.83c3.22,0,5.84,2.61,5.84,5.83
		C156.87,19.111,154.25,21.731,151.03,21.731z"/>
</g>
<g>
	<g>
		<path fill="#F2A390" d="M149.434,19.098v-2.543h-2.523c-0.347,0-0.591-0.285-0.591-0.711c0-0.407,0.244-0.733,0.591-0.733h2.523
			v-2.524c0-0.305,0.326-0.61,0.753-0.61c0.428,0,0.713,0.306,0.713,0.61v2.524h2.524c0.305,0,0.609,0.326,0.609,0.733
			c0,0.426-0.305,0.711-0.609,0.711h-2.524v2.543c0,0.347-0.285,0.591-0.713,0.591C149.76,19.688,149.434,19.444,149.434,19.098z"/>
	</g>
</g>
</svg>
