<?xml version="1.0" encoding="utf-8"?>
<!-- Generator: Adobe Illustrator 16.0.0, SVG Export Plug-In . SVG Version: 6.00 Build 0)  -->
<!DOCTYPE svg PUBLIC "-//W3C//DTD SVG 1.1//EN" "http://www.w3.org/Graphics/SVG/1.1/DTD/svg11.dtd">
<svg version="1.1" id="Ebene_1" xmlns="http://www.w3.org/2000/svg" xmlns:xlink="http://www.w3.org/1999/xlink" x="0px" y="0px"
	 width="166px" height="28.039px" viewBox="0 0 166 28.039" enable-background="new 0 0 166 28.039" xml:space="preserve">
<g>
	<path fill="#FFF59F" d="M151.029,7.29c-3.739,0-13.471,6.01-14.569,6.7l-0.08,0.05H10.52v1.161h125.85l0.09,0.059
		c1.101,0.681,10.83,6.701,14.569,6.701c4.051,0,7.341-3.291,7.341-7.34C158.37,10.58,155.08,7.29,151.029,7.29z M151.029,20.46
		c-2.51,0-9.289-3.76-12.729-5.84c3.44-2.071,10.21-5.831,12.729-5.831c3.221,0,5.841,2.61,5.841,5.831
		C156.87,17.839,154.25,20.46,151.029,20.46z"/>
</g>
<g>
	<g>
		<path fill="#FFF59F" d="M149.434,17.828v-2.545h-2.522c-0.347,0-0.591-0.285-0.591-0.713c0-0.406,0.244-0.732,0.591-0.732h2.522
			v-2.523c0-0.306,0.326-0.611,0.754-0.611s0.713,0.306,0.713,0.611v2.523h2.523c0.305,0,0.609,0.326,0.609,0.732
			c0,0.428-0.305,0.713-0.609,0.713H150.9v2.545c0,0.346-0.285,0.59-0.713,0.59S149.434,18.173,149.434,17.828z"/>
	</g>
</g>
</svg>
