<?xml version="1.0" encoding="utf-8"?>
<!-- Generator: Adobe Illustrator 15.0.0, SVG Export Plug-In . SVG Version: 6.00 Build 0)  -->
<!DOCTYPE svg PUBLIC "-//W3C//DTD SVG 1.1//EN" "http://www.w3.org/Graphics/SVG/1.1/DTD/svg11.dtd">
<svg version="1.1" id="Ebene_1" xmlns="http://www.w3.org/2000/svg" xmlns:xlink="http://www.w3.org/1999/xlink" x="0px" y="0px"
	 width="166px" height="28.038px" viewBox="0 0 166 28.038" enable-background="new 0 0 166 28.038" xml:space="preserve">
<text transform="matrix(1 0 0 1 -75.6719 215.624)" fill="#1A171B" font-family="'Dosis-Light'" font-size="9.3035"> </text>
<g>
	<defs>
		<path id="SVGID_1_" d="M160.425,96.571"/>
	</defs>
	<defs>
		<path id="SVGID_2_" d="M160.425,131.5"/>
	</defs>
	<clipPath id="SVGID_3_">
		<use xlink:href="#SVGID_1_"  overflow="visible"/>
	</clipPath>
	<clipPath id="SVGID_4_" clip-path="url(#SVGID_3_)">
		<use xlink:href="#SVGID_2_"  overflow="visible"/>
	</clipPath>
	<g clip-path="url(#SVGID_4_)">
		<path fill="#FFFFFF" d="M149.604,131.501"/>
	</g>
</g>
<g>
	<path fill="#FFFFFF" d="M149.6,109.86c-5.279,0-19.09,8.382-21.439,9.823h-323.67v2H128.18c2.4,1.48,16.15,9.822,21.42,9.822
		c5.971,0,10.82-4.861,10.82-10.822C160.42,114.71,155.57,109.86,149.6,109.86z M149.6,129.624c-3.88,0-14.38-5.86-19.47-8.941
		c5.09-3.08,15.59-8.953,19.47-8.953c4.94,0,8.95,4.022,8.95,8.953S154.54,129.624,149.6,129.624z"/>
</g>
<g>
	<g>
		<path fill="#FFFFFF" d="M147.449,125.487v-4.03h-4.03c-0.428,0-0.733-0.336-0.733-0.855c0-0.519,0.306-0.917,0.733-0.917h4.03
			v-3.969c0-0.398,0.396-0.795,0.885-0.795c0.52,0,0.886,0.397,0.886,0.795v3.969h3.97c0.396,0,0.794,0.398,0.794,0.917
			c0,0.52-0.397,0.855-0.794,0.855h-3.97v4.03c0,0.428-0.366,0.733-0.886,0.733C147.846,126.221,147.449,125.915,147.449,125.487z"
			/>
	</g>
</g>
<path fill="none" d="M160.425,131.5"/>
<g>
	<path fill="#A1A8BF" d="M151.03-127.92c-3.74,0-13.471,6.01-14.57,6.7l-0.09,0.06H10.55v1.16h125.83l0.08,0.05
		c1.1,0.69,10.83,6.7,14.57,6.7c4.05,0,7.34-3.29,7.34-7.33C158.37-124.63,155.08-127.92,151.03-127.92z M151.03-114.75
		c-2.511,0-9.29-3.76-12.73-5.83c3.44-2.08,10.21-5.84,12.73-5.84c3.22,0,5.84,2.62,5.84,5.84
		C156.87-117.37,154.25-114.75,151.03-114.75z"/>
</g>
<g>
	<g>
		<path fill="#A1A8BF" d="M149.434-117.378v-2.545h-2.523c-0.347,0-0.591-0.285-0.591-0.713c0-0.406,0.244-0.732,0.591-0.732h2.523
			v-2.523c0-0.306,0.326-0.611,0.753-0.611c0.428,0,0.713,0.306,0.713,0.611v2.523h2.524c0.305,0,0.609,0.326,0.609,0.732
			c0,0.428-0.305,0.713-0.609,0.713h-2.524v2.545c0,0.346-0.285,0.59-0.713,0.59C149.76-116.788,149.434-117.032,149.434-117.378z"
			/>
	</g>
</g>
<path fill="#A1A8BF" d="M158.371,91.813L158.371,91.813z"/>
<g>
	<path fill="#A1A8BF" d="M151.03,74.89c-3.74,0-13.471,6.02-14.57,6.7l-0.09,0.06H10.52v1.16h125.86l0.08,0.05
		c1.1,0.69,10.83,6.7,14.57,6.7c4.05,0,7.34-3.29,7.34-7.33C158.37,78.18,155.08,74.89,151.03,74.89z M151.03,88.06
		c-2.511,0-9.29-3.76-12.73-5.83c3.44-2.07,10.22-5.84,12.73-5.84c3.22,0,5.84,2.62,5.84,5.84
		C156.87,85.45,154.25,88.06,151.03,88.06z"/>
	<path fill="#A1A8BF" d="M154.03,82.18c0,0.43-0.3,0.71-0.61,0.71h-2.52v2.54c0,0.35-0.29,0.59-0.71,0.59
		c-0.431,0-0.761-0.24-0.761-0.59v-2.54h-2.52c-0.351,0-0.59-0.28-0.59-0.71c0-0.41,0.239-0.73,0.59-0.73h2.52v-2.53
		c0-0.3,0.33-0.61,0.761-0.61c0.42,0,0.71,0.31,0.71,0.61v2.53h2.52C153.73,81.45,154.03,81.77,154.03,82.18z"/>
</g>
<path fill="#A1A8BF" d="M158.371,91.813L158.371,91.813z"/>
<g>
	<path fill="#FFF59F" d="M151.03-93.9c-3.74,0-13.471,6.01-14.57,6.7l-0.08,0.05H10.52v1.16h125.85l0.09,0.06
		c1.1,0.68,10.83,6.7,14.57,6.7c4.05,0,7.34-3.29,7.34-7.34C158.37-90.61,155.08-93.9,151.03-93.9z M151.03-80.73
		c-2.511,0-9.29-3.76-12.73-5.84c3.44-2.07,10.21-5.83,12.73-5.83c3.22,0,5.84,2.61,5.84,5.83
		C156.87-83.35,154.25-80.73,151.03-80.73z"/>
</g>
<g>
	<g>
		<path fill="#FFF59F" d="M149.434-83.362v-2.545h-2.523c-0.347,0-0.591-0.285-0.591-0.713c0-0.406,0.244-0.732,0.591-0.732h2.523
			v-2.523c0-0.306,0.326-0.611,0.753-0.611c0.428,0,0.713,0.306,0.713,0.611v2.523h2.524c0.305,0,0.609,0.326,0.609,0.732
			c0,0.428-0.305,0.713-0.609,0.713h-2.524v2.545c0,0.346-0.285,0.59-0.713,0.59C149.76-82.772,149.434-83.017,149.434-83.362z"/>
	</g>
</g>
<path fill="#A1A8BF" d="M158.371,91.813L158.371,91.813z"/>
<g>
	<path fill="#9ED5EE" d="M151.03-60.35c-3.74,0-13.471,6.01-14.57,6.7l-0.08,0.05H10.52v1.16h125.85l0.09,0.06
		c1.1,0.68,10.83,6.7,14.57,6.7c4.05,0,7.34-3.29,7.34-7.34C158.37-57.06,155.08-60.35,151.03-60.35z M151.03-47.18
		c-2.511,0-9.29-3.77-12.73-5.84c3.44-2.07,10.21-5.83,12.73-5.83c3.22,0,5.84,2.61,5.84,5.83
		C156.87-49.8,154.25-47.18,151.03-47.18z"/>
</g>
<g>
	<g>
		<path fill="#9ED5EE" d="M149.434-49.813v-2.544h-2.523c-0.346,0-0.59-0.285-0.59-0.712c0-0.407,0.244-0.733,0.59-0.733h2.523
			v-2.524c0-0.305,0.326-0.61,0.754-0.61s0.713,0.306,0.713,0.61v2.524h2.523c0.305,0,0.61,0.326,0.61,0.733
			c0,0.427-0.306,0.712-0.61,0.712H150.9v2.544c0,0.347-0.285,0.591-0.713,0.591S149.434-49.467,149.434-49.813z"/>
	</g>
</g>
<path fill="#A1A8BF" d="M158.371,91.813L158.371,91.813z"/>
<g>
	<path fill="#CDC4CB" d="M151.03-26.23c-3.74,0-13.471,6.02-14.57,6.71l-0.08,0.05H10.52v1.16h125.85l0.09,0.06
		c1.1,0.68,10.83,6.7,14.57,6.7c4.05,0,7.34-3.29,7.34-7.34C158.37-22.93,155.08-26.23,151.03-26.23z M151.03-13.05
		c-2.511,0-9.29-3.77-12.73-5.84c3.44-2.07,10.22-5.84,12.73-5.84c3.22,0,5.84,2.62,5.84,5.84
		C156.87-15.67,154.25-13.05,151.03-13.05z"/>
</g>
<g>
	<g>
		<path fill="#CDC4CB" d="M149.434-15.685v-2.544h-2.523c-0.347,0-0.591-0.285-0.591-0.713c0-0.406,0.244-0.732,0.591-0.732h2.523
			v-2.524c0-0.306,0.326-0.611,0.753-0.611c0.428,0,0.713,0.306,0.713,0.611v2.524h2.524c0.305,0,0.609,0.326,0.609,0.732
			c0,0.428-0.305,0.713-0.609,0.713h-2.524v2.544c0,0.346-0.285,0.59-0.713,0.59C149.76-15.095,149.434-15.339,149.434-15.685z"/>
	</g>
</g>
<g>
	<path fill="#E67D6D" d="M151.03,7.61c-3.74,0-13.471,6.01-14.57,6.7l-0.08,0.05H10.52v1.16h125.85l0.09,0.06
		c1.1,0.68,10.83,6.69,14.57,6.69c4.05,0,7.34-3.28,7.34-7.33C158.37,10.9,155.08,7.61,151.03,7.61z M151.03,20.77
		c-2.511,0-9.29-3.76-12.73-5.83c3.44-2.07,10.22-5.83,12.73-5.83c3.22,0,5.84,2.62,5.84,5.83
		C156.87,18.16,154.25,20.77,151.03,20.77z"/>
</g>
<g>
	<g>
		<path fill="#E67D6D" d="M149.434,18.145v-2.542h-2.523c-0.347,0-0.591-0.285-0.591-0.712c0-0.406,0.244-0.732,0.591-0.732h2.523
			v-2.523c0-0.306,0.326-0.611,0.753-0.611c0.428,0,0.713,0.306,0.713,0.611v2.523h2.524c0.305,0,0.609,0.326,0.609,0.732
			c0,0.427-0.305,0.712-0.609,0.712h-2.524v2.542c0,0.346-0.285,0.59-0.713,0.59C149.76,18.735,149.434,18.491,149.434,18.145z"/>
	</g>
</g>
<g>
	<path fill="#F2A390" d="M151.03,41.44c-3.74,0-13.471,6.01-14.57,6.69l-0.09,0.06H10.52v1.16h125.85l0.09,0.06
		c1.1,0.68,10.83,6.7,14.57,6.7c4.05,0,7.34-3.29,7.34-7.34C158.37,44.73,155.08,41.44,151.03,41.44z M151.03,54.61
		c-2.511,0-9.29-3.77-12.73-5.84c3.44-2.07,10.22-5.83,12.73-5.83c3.22,0,5.84,2.61,5.84,5.83
		C156.87,51.99,154.25,54.61,151.03,54.61z"/>
</g>
<g>
	<g>
		<path fill="#F2A390" d="M149.434,51.977v-2.543h-2.523c-0.347,0-0.591-0.285-0.591-0.711c0-0.407,0.244-0.733,0.591-0.733h2.523
			v-2.524c0-0.305,0.326-0.61,0.753-0.61c0.428,0,0.713,0.306,0.713,0.61v2.524h2.524c0.305,0,0.609,0.326,0.609,0.733
			c0,0.426-0.305,0.711-0.609,0.711h-2.524v2.543c0,0.347-0.285,0.591-0.713,0.591C149.76,52.567,149.434,52.323,149.434,51.977z"/>
	</g>
</g>
</svg>
