<?xml version="1.0" encoding="utf-8"?>
<!-- Generator: Adobe Illustrator 16.0.0, SVG Export Plug-In . SVG Version: 6.00 Build 0)  -->
<!DOCTYPE svg PUBLIC "-//W3C//DTD SVG 1.1//EN" "http://www.w3.org/Graphics/SVG/1.1/DTD/svg11.dtd">
<svg version="1.1" id="Ebene_1" xmlns="http://www.w3.org/2000/svg" xmlns:xlink="http://www.w3.org/1999/xlink" x="0px" y="0px"
	 width="367px" height="28.039px" viewBox="0 0 367 28.039" enable-background="new 0 0 367 28.039" xml:space="preserve">
<g>
	<rect x="11.066" y="13.385" fill="#FFFFFF" width="325.312" height="2"/>
</g>
<g>
	<path fill="#FFFFFF" d="M354.025,19.191v-4.029h-4.03c-0.428,0-0.733-0.336-0.733-0.854c0-0.519,0.308-0.916,0.733-0.916h4.03
		V9.423c0-0.397,0.396-0.794,0.885-0.794c0.52,0,0.887,0.396,0.887,0.794v3.969h3.969c0.396,0,0.795,0.397,0.795,0.916
		c0,0.521-0.396,0.854-0.795,0.854h-3.969v4.029c0,0.428-0.367,0.731-0.887,0.731C354.422,19.925,354.025,19.619,354.025,19.191z"/>
</g>
<g>
	<path fill="#FFFFFF" d="M356.18,25.205c-5.661,0-21.106-9.615-21.762-10.023l-1.271-0.795l1.271-0.795
		c0.655-0.409,16.101-10.024,21.762-10.024c5.967,0,10.82,4.854,10.82,10.819S362.146,25.205,356.18,25.205z M336.706,14.386
		c5.093,3.081,15.588,8.944,19.474,8.944c4.933,0,8.945-4.013,8.945-8.944c0-4.932-4.013-8.944-8.945-8.944
		C352.294,5.442,341.799,11.306,336.706,14.386z"/>
</g>
</svg>
