<?xml version="1.0" encoding="utf-8"?>
<!-- Generator: Adobe Illustrator 15.0.0, SVG Export Plug-In . SVG Version: 6.00 Build 0)  -->
<!DOCTYPE svg PUBLIC "-//W3C//DTD SVG 1.1//EN" "http://www.w3.org/Graphics/SVG/1.1/DTD/svg11.dtd">
<svg version="1.1" id="Ebene_1" xmlns="http://www.w3.org/2000/svg" xmlns:xlink="http://www.w3.org/1999/xlink" x="0px" y="0px"
	 width="33.667px" height="28.038px" viewBox="0 0 33.667 28.038" enable-background="new 0 0 33.667 28.038" xml:space="preserve">
<text transform="matrix(1 0 0 1 -75.6719 248.0254)" fill="#1A171B" font-family="'Dosis-Light'" font-size="9.3035"> </text>
<g>
	<defs>
		<path id="SVGID_1_" d="M160.425,259.098"/>
	</defs>
	<defs>
		<path id="SVGID_2_" d="M160.425,294.029"/>
	</defs>
	<clipPath id="SVGID_3_">
		<use xlink:href="#SVGID_1_"  overflow="visible"/>
	</clipPath>
	<clipPath id="SVGID_4_" clip-path="url(#SVGID_3_)">
		<use xlink:href="#SVGID_2_"  overflow="visible"/>
	</clipPath>
	<g clip-path="url(#SVGID_4_)">
		<path fill="#FFFFFF" d="M149.604,294.03"/>
	</g>
</g>
<g>
	<path fill="#FFFFFF" d="M149.6,272.389c-5.279,0-19.09,8.383-21.439,9.823h-323.67v2H128.18c2.4,1.48,16.15,9.822,21.42,9.822
		c5.971,0,10.82-4.861,10.82-10.822C160.42,277.239,155.57,272.389,149.6,272.389z M149.6,292.153c-3.88,0-14.38-5.86-19.47-8.941
		c5.09-3.08,15.59-8.953,19.47-8.953c4.94,0,8.95,4.022,8.95,8.953S154.54,292.153,149.6,292.153z"/>
</g>
<g>
	<g>
		<path fill="#FFFFFF" d="M147.449,288.017v-4.03h-4.03c-0.428,0-0.733-0.336-0.733-0.855c0-0.519,0.306-0.917,0.733-0.917h4.03
			v-3.969c0-0.398,0.396-0.796,0.885-0.796c0.52,0,0.886,0.397,0.886,0.796v3.969h3.97c0.396,0,0.794,0.398,0.794,0.917
			c0,0.52-0.397,0.855-0.794,0.855h-3.97v4.03c0,0.428-0.366,0.733-0.886,0.733C147.846,288.75,147.449,288.444,147.449,288.017z"/>
	</g>
</g>
<path fill="none" d="M160.425,294.029"/>
<g>
	<path fill="#A1A8BF" d="M151.03,34.581c-3.74,0-13.471,6.01-14.57,6.7l-0.09,0.06H10.55v1.16h125.83l0.08,0.05
		c1.1,0.69,10.83,6.7,14.57,6.7c4.05,0,7.34-3.29,7.34-7.33C158.37,37.871,155.08,34.581,151.03,34.581z M151.03,47.751
		c-2.511,0-9.29-3.76-12.73-5.83c3.44-2.08,10.21-5.84,12.73-5.84c3.22,0,5.84,2.62,5.84,5.84
		C156.87,45.131,154.25,47.751,151.03,47.751z"/>
</g>
<g>
	<g>
		<path fill="#A1A8BF" d="M149.434,45.124v-2.545h-2.523c-0.347,0-0.591-0.285-0.591-0.713c0-0.406,0.244-0.732,0.591-0.732h2.523
			V38.61c0-0.306,0.326-0.611,0.753-0.611c0.428,0,0.713,0.306,0.713,0.611v2.523h2.524c0.305,0,0.609,0.326,0.609,0.732
			c0,0.428-0.305,0.713-0.609,0.713h-2.524v2.545c0,0.346-0.285,0.59-0.713,0.59C149.76,45.713,149.434,45.469,149.434,45.124z"/>
	</g>
</g>
<path fill="#A1A8BF" d="M158.371,254.338L158.371,254.338z"/>
<g>
	<path fill="#A1A8BF" d="M151.03,237.412c-3.74,0-13.471,6.021-14.57,6.701l-0.09,0.061H10.52v1.159h125.86l0.08,0.051
		c1.1,0.689,10.83,6.7,14.57,6.7c4.05,0,7.34-3.29,7.34-7.33C158.37,240.702,155.08,237.412,151.03,237.412z M151.03,250.584
		c-2.511,0-9.29-3.761-12.73-5.83c3.44-2.071,10.22-5.842,12.73-5.842c3.22,0,5.84,2.621,5.84,5.842
		C156.87,247.974,154.25,250.584,151.03,250.584z"/>
	<path fill="#A1A8BF" d="M154.03,244.703c0,0.431-0.3,0.71-0.61,0.71h-2.52v2.541c0,0.35-0.29,0.59-0.71,0.59
		c-0.431,0-0.761-0.24-0.761-0.59v-2.541h-2.52c-0.351,0-0.59-0.279-0.59-0.71c0-0.409,0.239-0.73,0.59-0.73h2.52v-2.529
		c0-0.301,0.33-0.611,0.761-0.611c0.42,0,0.71,0.311,0.71,0.611v2.529h2.52C153.73,243.973,154.03,244.294,154.03,244.703z"/>
</g>
<path fill="#A1A8BF" d="M158.371,254.338L158.371,254.338z"/>
<g>
	<path fill="#FFF59F" d="M151.03,68.601c-3.74,0-13.471,6.01-14.57,6.7l-0.08,0.05H10.52v1.16h125.85l0.09,0.06
		c1.1,0.68,10.83,6.7,14.57,6.7c4.05,0,7.34-3.29,7.34-7.34C158.37,71.891,155.08,68.601,151.03,68.601z M151.03,81.771
		c-2.511,0-9.29-3.76-12.73-5.84c3.44-2.07,10.21-5.83,12.73-5.83c3.22,0,5.84,2.61,5.84,5.83
		C156.87,79.151,154.25,81.771,151.03,81.771z"/>
</g>
<g>
	<g>
		<path fill="#FFF59F" d="M149.434,79.139v-2.545h-2.523c-0.347,0-0.591-0.285-0.591-0.713c0-0.406,0.244-0.732,0.591-0.732h2.523
			v-2.523c0-0.306,0.326-0.611,0.753-0.611c0.428,0,0.713,0.306,0.713,0.611v2.523h2.524c0.305,0,0.609,0.326,0.609,0.732
			c0,0.428-0.305,0.713-0.609,0.713h-2.524v2.545c0,0.346-0.285,0.59-0.713,0.59C149.76,79.729,149.434,79.485,149.434,79.139z"/>
	</g>
</g>
<path fill="#A1A8BF" d="M158.371,254.338L158.371,254.338z"/>
<g>
	<path fill="#9ED5EE" d="M151.03,102.151c-3.74,0-13.471,6.01-14.57,6.7l-0.08,0.05H10.52v1.16h125.85l0.09,0.06
		c1.1,0.68,10.83,6.699,14.57,6.699c4.05,0,7.34-3.289,7.34-7.339C158.37,105.441,155.08,102.151,151.03,102.151z M151.03,115.321
		c-2.511,0-9.29-3.77-12.73-5.84c3.44-2.07,10.21-5.83,12.73-5.83c3.22,0,5.84,2.61,5.84,5.83
		C156.87,112.701,154.25,115.321,151.03,115.321z"/>
</g>
<g>
	<g>
		<path fill="#9ED5EE" d="M149.434,112.688v-2.544h-2.523c-0.346,0-0.59-0.285-0.59-0.712c0-0.407,0.244-0.733,0.59-0.733h2.523
			v-2.524c0-0.305,0.326-0.61,0.754-0.61s0.713,0.306,0.713,0.61v2.524h2.523c0.305,0,0.61,0.326,0.61,0.733
			c0,0.427-0.306,0.712-0.61,0.712H150.9v2.544c0,0.347-0.285,0.591-0.713,0.591S149.434,113.035,149.434,112.688z"/>
	</g>
</g>
<path fill="#A1A8BF" d="M158.371,254.338L158.371,254.338z"/>
<g>
	<path fill="#CDC4CB" d="M151.03,136.274c-3.74,0-13.471,6.021-14.57,6.711l-0.08,0.05H10.52v1.16h125.85l0.09,0.06
		c1.1,0.681,10.83,6.701,14.57,6.701c4.05,0,7.34-3.29,7.34-7.341C158.37,139.574,155.08,136.274,151.03,136.274z M151.03,149.456
		c-2.511,0-9.29-3.771-12.73-5.841c3.44-2.071,10.22-5.841,12.73-5.841c3.22,0,5.84,2.62,5.84,5.841
		C156.87,146.835,154.25,149.456,151.03,149.456z"/>
</g>
<g>
	<g>
		<path fill="#CDC4CB" d="M149.434,146.821v-2.545h-2.523c-0.347,0-0.591-0.285-0.591-0.713c0-0.406,0.244-0.732,0.591-0.732h2.523
			v-2.524c0-0.306,0.326-0.611,0.753-0.611c0.428,0,0.713,0.306,0.713,0.611v2.524h2.524c0.305,0,0.609,0.326,0.609,0.732
			c0,0.428-0.305,0.713-0.609,0.713h-2.524v2.545c0,0.346-0.285,0.59-0.713,0.59C149.76,147.411,149.434,147.167,149.434,146.821z"
			/>
	</g>
</g>
<g>
	<path fill="#E67D6D" d="M151.03,170.119c-3.74,0-13.471,6.011-14.57,6.702l-0.08,0.051H10.52v1.16h125.85l0.09,0.06
		c1.1,0.68,10.83,6.691,14.57,6.691c4.05,0,7.34-3.281,7.34-7.331C158.37,173.409,155.08,170.119,151.03,170.119z M151.03,183.283
		c-2.511,0-9.29-3.761-12.73-5.831c3.44-2.072,10.22-5.833,12.73-5.833c3.22,0,5.84,2.621,5.84,5.833
		C156.87,180.672,154.25,183.283,151.03,183.283z"/>
</g>
<g>
	<g>
		<path fill="#E67D6D" d="M149.434,180.657v-2.543h-2.523c-0.347,0-0.591-0.285-0.591-0.712c0-0.406,0.244-0.733,0.591-0.733h2.523
			v-2.524c0-0.306,0.326-0.611,0.753-0.611c0.428,0,0.713,0.306,0.713,0.611v2.524h2.524c0.305,0,0.609,0.327,0.609,0.733
			c0,0.427-0.305,0.712-0.609,0.712h-2.524v2.543c0,0.346-0.285,0.59-0.713,0.59C149.76,181.247,149.434,181.003,149.434,180.657z"
			/>
	</g>
</g>
<g>
	<path fill="#F2A390" d="M151.03,203.956c-3.74,0-13.471,6.011-14.57,6.691l-0.09,0.061H10.52v1.159h125.85l0.09,0.061
		c1.1,0.68,10.83,6.701,14.57,6.701c4.05,0,7.34-3.291,7.34-7.341C158.37,207.247,155.08,203.956,151.03,203.956z M151.03,217.129
		c-2.511,0-9.29-3.771-12.73-5.841c3.44-2.071,10.22-5.831,12.73-5.831c3.22,0,5.84,2.61,5.84,5.831
		C156.87,214.508,154.25,217.129,151.03,217.129z"/>
</g>
<g>
	<g>
		<path fill="#F2A390" d="M149.434,214.495v-2.544h-2.523c-0.347,0-0.591-0.285-0.591-0.711c0-0.407,0.244-0.733,0.591-0.733h2.523
			v-2.524c0-0.305,0.326-0.61,0.753-0.61c0.428,0,0.713,0.306,0.713,0.61v2.524h2.524c0.305,0,0.609,0.326,0.609,0.733
			c0,0.426-0.305,0.711-0.609,0.711h-2.524v2.544c0,0.347-0.285,0.591-0.713,0.591C149.76,215.086,149.434,214.842,149.434,214.495z
			"/>
	</g>
</g>
<circle fill="none" stroke="#FFF59F" stroke-width="1.215" cx="17.412" cy="-12.437" r="6.804"/>
<polygon fill="#FFF59F" points="16.132,-15.978 16.132,-8.896 20.109,-12.437 "/>
<circle fill="none" stroke="#FFF59F" stroke-width="1.215" cx="17.412" cy="12.989" r="6.804"/>
<text transform="matrix(1 0 0 1 13.6455 -35.7651)" fill="#1A171B" font-family="'MinionPro-Regular'" font-size="9.7208"> </text>
<circle fill="none" stroke="#FFF59F" stroke-width="1.215" cx="17.412" cy="-37.447" r="6.804"/>
<g>
	<path fill="#FFF59F" d="M17.983-40.465c0,0.361-0.339,0.689-0.767,0.689c-0.438,0-0.776-0.328-0.776-0.689
		c0-0.372,0.339-0.689,0.776-0.689C17.645-41.154,17.983-40.837,17.983-40.465z M17.929-38.178v4.311
		c0,0.219-0.317,0.448-0.712,0.448c-0.404,0-0.699-0.229-0.699-0.448v-4.311c0-0.263,0.295-0.438,0.699-0.438
		C17.611-38.615,17.929-38.44,17.929-38.178z"/>
</g>
<line fill="none" stroke="#FFF59F" stroke-width="1.058" x1="14.111" y1="10.361" x2="18.629" y2="10.361"/>
<line fill="none" stroke="#FFF59F" stroke-width="1.058" x1="14.111" y1="12.51" x2="20.712" y2="12.51"/>
<line fill="none" stroke="#FFF59F" stroke-width="1.058" x1="14.111" y1="14.084" x2="20.712" y2="14.084"/>
<line fill="none" stroke="#FFF59F" stroke-width="1.058" x1="14.111" y1="15.658" x2="20.712" y2="15.658"/>
</svg>
