<?xml version="1.0" encoding="utf-8"?>
<!-- Generator: Adobe Illustrator 15.0.0, SVG Export Plug-In . SVG Version: 6.00 Build 0)  -->
<!DOCTYPE svg PUBLIC "-//W3C//DTD SVG 1.1//EN" "http://www.w3.org/Graphics/SVG/1.1/DTD/svg11.dtd">
<svg version="1.1" id="Ebene_1" xmlns="http://www.w3.org/2000/svg" xmlns:xlink="http://www.w3.org/1999/xlink" x="0px" y="0px"
	 width="367px" height="28.038px" viewBox="0 0 367 28.038" enable-background="new 0 0 367 28.038" xml:space="preserve">
<text transform="matrix(1 0 0 1 125.3281 215.624)" fill="#1A171B" font-family="'Dosis-Light'" font-size="9.3035"> </text>
<g>
	<defs>
		<path id="SVGID_1_" d="M361.425-9.72"/>
	</defs>
	<defs>
		<path id="SVGID_2_" d="M361.425,25.204"/>
	</defs>
	<clipPath id="SVGID_3_">
		<use xlink:href="#SVGID_1_"  overflow="visible"/>
	</clipPath>
	<clipPath id="SVGID_4_" clip-path="url(#SVGID_3_)">
		<use xlink:href="#SVGID_2_"  overflow="visible"/>
	</clipPath>
	<g clip-path="url(#SVGID_4_)">
		<path fill="#FFFFFF" d="M350.604,25.204"/>
	</g>
</g>
<g>
	<path fill="#FFFFFF" d="M350.6,3.568c-5.279,0-19.09,8.38-21.439,9.82H5.49v2H329.18c2.4,1.48,16.15,9.82,21.42,9.82
		c5.971,0,10.82-4.86,10.82-10.82C361.42,8.418,356.57,3.568,350.6,3.568z M350.6,23.328c-3.88,0-14.38-5.86-19.47-8.94
		c5.09-3.08,15.59-8.95,19.47-8.95c4.94,0,8.95,4.02,8.95,8.95C359.55,19.318,355.54,23.328,350.6,23.328z"/>
</g>
<g>
	<g>
		<path fill="#FFFFFF" d="M348.449,19.192v-4.03h-4.03c-0.428,0-0.733-0.336-0.733-0.855c0-0.519,0.306-0.916,0.733-0.916h4.03
			V9.422c0-0.397,0.396-0.794,0.885-0.794c0.52,0,0.886,0.396,0.886,0.794v3.969h3.97c0.396,0,0.794,0.397,0.794,0.916
			c0,0.52-0.397,0.855-0.794,0.855h-3.97v4.03c0,0.427-0.366,0.732-0.886,0.732C348.846,19.925,348.449,19.619,348.449,19.192z"/>
	</g>
</g>
<path fill="none" d="M361.425,25.204"/>
<g>
	<path fill="#A1A8BF" d="M352.03-234.212c-3.74,0-13.471,6.01-14.57,6.7l-0.09,0.06H211.55v1.16h125.83l0.08,0.05
		c1.1,0.69,10.83,6.7,14.57,6.7c4.05,0,7.34-3.29,7.34-7.33C359.37-230.922,356.08-234.212,352.03-234.212z M352.03-221.042
		c-2.511,0-9.29-3.76-12.73-5.83c3.44-2.08,10.21-5.84,12.73-5.84c3.22,0,5.84,2.62,5.84,5.84
		C357.87-223.662,355.25-221.042,352.03-221.042z"/>
</g>
<g>
	<g>
		<path fill="#A1A8BF" d="M350.434-223.669v-2.545h-2.523c-0.347,0-0.591-0.285-0.591-0.713c0-0.406,0.244-0.732,0.591-0.732h2.523
			v-2.523c0-0.306,0.326-0.611,0.753-0.611c0.428,0,0.713,0.306,0.713,0.611v2.523h2.524c0.305,0,0.609,0.326,0.609,0.732
			c0,0.428-0.305,0.713-0.609,0.713h-2.524v2.545c0,0.346-0.285,0.59-0.713,0.59C350.76-223.08,350.434-223.324,350.434-223.669z"/>
	</g>
</g>
<path fill="#A1A8BF" d="M359.371-14.479L359.371-14.479z"/>
<g>
	<path fill="#A1A8BF" d="M352.03-31.402c-3.74,0-13.471,6.02-14.57,6.7l-0.09,0.06H211.52v1.16h125.86l0.08,0.05
		c1.1,0.69,10.83,6.7,14.57,6.7c4.05,0,7.34-3.29,7.34-7.33C359.37-28.112,356.08-31.402,352.03-31.402z M352.03-18.232
		c-2.511,0-9.29-3.76-12.73-5.83c3.44-2.07,10.22-5.84,12.73-5.84c3.22,0,5.84,2.62,5.84,5.84
		C357.87-20.842,355.25-18.232,352.03-18.232z"/>
	<path fill="#A1A8BF" d="M355.03-24.112c0,0.43-0.3,0.71-0.61,0.71h-2.52v2.54c0,0.35-0.29,0.59-0.71,0.59
		c-0.431,0-0.761-0.24-0.761-0.59v-2.54h-2.52c-0.351,0-0.59-0.28-0.59-0.71c0-0.41,0.239-0.73,0.59-0.73h2.52v-2.53
		c0-0.3,0.33-0.61,0.761-0.61c0.42,0,0.71,0.31,0.71,0.61v2.53h2.52C354.73-24.842,355.03-24.521,355.03-24.112z"/>
</g>
<path fill="#A1A8BF" d="M359.371-14.479L359.371-14.479z"/>
<g>
	<path fill="#FFF59F" d="M352.03-200.192c-3.74,0-13.471,6.01-14.57,6.7l-0.08,0.05H211.52v1.16h125.85l0.09,0.06
		c1.1,0.68,10.83,6.7,14.57,6.7c4.05,0,7.34-3.29,7.34-7.34C359.37-196.902,356.08-200.192,352.03-200.192z M352.03-187.021
		c-2.511,0-9.29-3.76-12.73-5.84c3.44-2.07,10.21-5.83,12.73-5.83c3.22,0,5.84,2.61,5.84,5.83
		C357.87-189.642,355.25-187.021,352.03-187.021z"/>
</g>
<g>
	<g>
		<path fill="#FFF59F" d="M350.434-189.654v-2.545h-2.523c-0.347,0-0.591-0.285-0.591-0.713c0-0.406,0.244-0.732,0.591-0.732h2.523
			v-2.523c0-0.306,0.326-0.611,0.753-0.611c0.428,0,0.713,0.306,0.713,0.611v2.523h2.524c0.305,0,0.609,0.326,0.609,0.732
			c0,0.428-0.305,0.713-0.609,0.713h-2.524v2.545c0,0.346-0.285,0.59-0.713,0.59C350.76-189.064,350.434-189.308,350.434-189.654z"
			/>
	</g>
</g>
<path fill="#A1A8BF" d="M359.371-14.479L359.371-14.479z"/>
<g>
	<path fill="#9ED5EE" d="M352.03-166.642c-3.74,0-13.471,6.01-14.57,6.7l-0.08,0.05H211.52v1.16h125.85l0.09,0.06
		c1.1,0.68,10.83,6.7,14.57,6.7c4.05,0,7.34-3.29,7.34-7.34C359.37-163.352,356.08-166.642,352.03-166.642z M352.03-153.472
		c-2.511,0-9.29-3.77-12.73-5.84c3.44-2.07,10.21-5.83,12.73-5.83c3.22,0,5.84,2.61,5.84,5.83
		C357.87-156.092,355.25-153.472,352.03-153.472z"/>
</g>
<g>
	<g>
		<path fill="#9ED5EE" d="M350.434-156.105v-2.544h-2.523c-0.346,0-0.59-0.285-0.59-0.712c0-0.407,0.244-0.733,0.59-0.733h2.523
			v-2.524c0-0.305,0.326-0.61,0.754-0.61s0.713,0.306,0.713,0.61v2.524h2.523c0.305,0,0.61,0.326,0.61,0.733
			c0,0.427-0.306,0.712-0.61,0.712H351.9v2.544c0,0.347-0.285,0.591-0.713,0.591S350.434-155.758,350.434-156.105z"/>
	</g>
</g>
<path fill="#A1A8BF" d="M359.371-14.479L359.371-14.479z"/>
<g>
	<path fill="#CDC4CB" d="M352.03-132.521c-3.74,0-13.471,6.02-14.57,6.71l-0.08,0.05H211.52v1.16h125.85l0.09,0.06
		c1.1,0.68,10.83,6.7,14.57,6.7c4.05,0,7.34-3.29,7.34-7.34C359.37-129.222,356.08-132.521,352.03-132.521z M352.03-119.342
		c-2.511,0-9.29-3.77-12.73-5.84c3.44-2.07,10.22-5.84,12.73-5.84c3.22,0,5.84,2.62,5.84,5.84
		C357.87-121.962,355.25-119.342,352.03-119.342z"/>
</g>
<g>
	<g>
		<path fill="#CDC4CB" d="M350.434-121.976v-2.544h-2.523c-0.347,0-0.591-0.285-0.591-0.713c0-0.406,0.244-0.732,0.591-0.732h2.523
			v-2.524c0-0.306,0.326-0.611,0.753-0.611c0.428,0,0.713,0.306,0.713,0.611v2.524h2.524c0.305,0,0.609,0.326,0.609,0.732
			c0,0.428-0.305,0.713-0.609,0.713h-2.524v2.544c0,0.346-0.285,0.59-0.713,0.59C350.76-121.386,350.434-121.63,350.434-121.976z"/>
	</g>
</g>
<g>
	<path fill="#E67D6D" d="M352.03-98.682c-3.74,0-13.471,6.01-14.57,6.7l-0.08,0.05H211.52v1.16h125.85l0.09,0.06
		c1.1,0.68,10.83,6.69,14.57,6.69c4.05,0,7.34-3.28,7.34-7.33C359.37-95.392,356.08-98.682,352.03-98.682z M352.03-85.521
		c-2.511,0-9.29-3.76-12.73-5.83c3.44-2.07,10.22-5.83,12.73-5.83c3.22,0,5.84,2.62,5.84,5.83
		C357.87-88.132,355.25-85.521,352.03-85.521z"/>
</g>
<g>
	<g>
		<path fill="#E67D6D" d="M350.434-88.146v-2.542h-2.523c-0.347,0-0.591-0.285-0.591-0.712c0-0.406,0.244-0.732,0.591-0.732h2.523
			v-2.523c0-0.306,0.326-0.611,0.753-0.611c0.428,0,0.713,0.306,0.713,0.611v2.523h2.524c0.305,0,0.609,0.326,0.609,0.732
			c0,0.427-0.305,0.712-0.609,0.712h-2.524v2.542c0,0.346-0.285,0.59-0.713,0.59C350.76-87.557,350.434-87.801,350.434-88.146z"/>
	</g>
</g>
<g>
	<path fill="#F2A390" d="M352.03-64.852c-3.74,0-13.471,6.01-14.57,6.69l-0.09,0.06H211.52v1.16h125.85l0.09,0.06
		c1.1,0.68,10.83,6.7,14.57,6.7c4.05,0,7.34-3.29,7.34-7.34C359.37-61.562,356.08-64.852,352.03-64.852z M352.03-51.682
		c-2.511,0-9.29-3.77-12.73-5.84c3.44-2.07,10.22-5.83,12.73-5.83c3.22,0,5.84,2.61,5.84,5.83
		C357.87-54.302,355.25-51.682,352.03-51.682z"/>
</g>
<g>
	<g>
		<path fill="#F2A390" d="M350.434-54.315v-2.543h-2.523c-0.347,0-0.591-0.285-0.591-0.711c0-0.407,0.244-0.733,0.591-0.733h2.523
			v-2.524c0-0.305,0.326-0.61,0.753-0.61c0.428,0,0.713,0.306,0.713,0.61v2.524h2.524c0.305,0,0.609,0.326,0.609,0.733
			c0,0.426-0.305,0.711-0.609,0.711h-2.524v2.543c0,0.347-0.285,0.591-0.713,0.591C350.76-53.724,350.434-53.968,350.434-54.315z"/>
	</g>
</g>
</svg>
