<?xml version="1.0" encoding="utf-8"?>
<!-- Generator: Adobe Illustrator 15.0.0, SVG Export Plug-In . SVG Version: 6.00 Build 0)  -->
<!DOCTYPE svg PUBLIC "-//W3C//DTD SVG 1.1//EN" "http://www.w3.org/Graphics/SVG/1.1/DTD/svg11.dtd">
<svg version="1.1" id="Ebene_1" xmlns="http://www.w3.org/2000/svg" xmlns:xlink="http://www.w3.org/1999/xlink" x="0px" y="0px"
	 width="166px" height="28.038px" viewBox="0 0 166 28.038" enable-background="new 0 0 166 28.038" xml:space="preserve">
<text transform="matrix(1 0 0 1 -75.6719 215.624)" fill="#1A171B" font-family="'Dosis-Light'" font-size="9.3035"> </text>
<g>
	<defs>
		<path id="SVGID_1_" d="M160.425,164.607"/>
	</defs>
	<defs>
		<path id="SVGID_2_" d="M160.425,199.539"/>
	</defs>
	<clipPath id="SVGID_3_">
		<use xlink:href="#SVGID_1_"  overflow="visible"/>
	</clipPath>
	<clipPath id="SVGID_4_" clip-path="url(#SVGID_3_)">
		<use xlink:href="#SVGID_2_"  overflow="visible"/>
	</clipPath>
	<g clip-path="url(#SVGID_4_)">
		<path fill="#FFFFFF" d="M149.604,199.54"/>
	</g>
</g>
<g>
	<path fill="#FFFFFF" d="M149.6,177.898c-5.279,0-19.09,8.383-21.439,9.823h-323.67v2H128.18c2.4,1.48,16.15,9.822,21.42,9.822
		c5.971,0,10.82-4.861,10.82-10.822C160.42,182.749,155.57,177.898,149.6,177.898z M149.6,197.663c-3.88,0-14.38-5.86-19.47-8.941
		c5.09-3.08,15.59-8.953,19.47-8.953c4.94,0,8.95,4.022,8.95,8.953S154.54,197.663,149.6,197.663z"/>
</g>
<g>
	<g>
		<path fill="#FFFFFF" d="M147.449,193.526v-4.03h-4.03c-0.428,0-0.733-0.336-0.733-0.855c0-0.519,0.306-0.917,0.733-0.917h4.03
			v-3.969c0-0.398,0.396-0.796,0.885-0.796c0.52,0,0.886,0.397,0.886,0.796v3.969h3.97c0.396,0,0.794,0.398,0.794,0.917
			c0,0.52-0.397,0.855-0.794,0.855h-3.97v4.03c0,0.428-0.366,0.733-0.886,0.733C147.846,194.26,147.449,193.954,147.449,193.526z"/>
	</g>
</g>
<path fill="none" d="M160.425,199.539"/>
<g>
	<path fill="#A1A8BF" d="M151.03-59.893c-3.74,0-13.471,6.01-14.57,6.7l-0.09,0.06H10.55v1.16h125.83l0.08,0.05
		c1.1,0.69,10.83,6.7,14.57,6.7c4.05,0,7.34-3.29,7.34-7.33C158.37-56.603,155.08-59.893,151.03-59.893z M151.03-46.723
		c-2.511,0-9.29-3.76-12.73-5.83c3.44-2.08,10.21-5.84,12.73-5.84c3.22,0,5.84,2.62,5.84,5.84
		C156.87-49.343,154.25-46.723,151.03-46.723z"/>
</g>
<g>
	<g>
		<path fill="#A1A8BF" d="M149.434-49.351v-2.545h-2.523c-0.347,0-0.591-0.285-0.591-0.713c0-0.406,0.244-0.732,0.591-0.732h2.523
			v-2.523c0-0.306,0.326-0.611,0.753-0.611c0.428,0,0.713,0.306,0.713,0.611v2.523h2.524c0.305,0,0.609,0.326,0.609,0.732
			c0,0.428-0.305,0.713-0.609,0.713h-2.524v2.545c0,0.346-0.285,0.59-0.713,0.59C149.76-48.761,149.434-49.005,149.434-49.351z"/>
	</g>
</g>
<path fill="#A1A8BF" d="M158.371,159.848L158.371,159.848z"/>
<g>
	<path fill="#A1A8BF" d="M151.03,142.922c-3.74,0-13.471,6.021-14.57,6.701l-0.09,0.061H10.52v1.159h125.86l0.08,0.051
		c1.1,0.689,10.83,6.7,14.57,6.7c4.05,0,7.34-3.29,7.34-7.33C158.37,146.212,155.08,142.922,151.03,142.922z M151.03,156.094
		c-2.511,0-9.29-3.761-12.73-5.83c3.44-2.071,10.22-5.842,12.73-5.842c3.22,0,5.84,2.621,5.84,5.842
		C156.87,153.483,154.25,156.094,151.03,156.094z"/>
	<path fill="#A1A8BF" d="M154.03,150.213c0,0.431-0.3,0.71-0.61,0.71h-2.52v2.541c0,0.35-0.29,0.59-0.71,0.59
		c-0.431,0-0.761-0.24-0.761-0.59v-2.541h-2.52c-0.351,0-0.59-0.279-0.59-0.71c0-0.409,0.239-0.73,0.59-0.73h2.52v-2.529
		c0-0.301,0.33-0.611,0.761-0.611c0.42,0,0.71,0.311,0.71,0.611v2.529h2.52C153.73,149.482,154.03,149.804,154.03,150.213z"/>
</g>
<path fill="#A1A8BF" d="M158.371,159.848L158.371,159.848z"/>
<g>
	<path fill="#FFF59F" d="M151.03-25.873c-3.74,0-13.471,6.01-14.57,6.7l-0.08,0.05H10.52v1.16h125.85l0.09,0.06
		c1.1,0.68,10.83,6.7,14.57,6.7c4.05,0,7.34-3.29,7.34-7.34C158.37-22.583,155.08-25.873,151.03-25.873z M151.03-12.703
		c-2.511,0-9.29-3.76-12.73-5.84c3.44-2.07,10.21-5.83,12.73-5.83c3.22,0,5.84,2.61,5.84,5.83
		C156.87-15.323,154.25-12.703,151.03-12.703z"/>
</g>
<g>
	<g>
		<path fill="#FFF59F" d="M149.434-15.335v-2.545h-2.523c-0.347,0-0.591-0.285-0.591-0.713c0-0.406,0.244-0.732,0.591-0.732h2.523
			v-2.523c0-0.306,0.326-0.611,0.753-0.611c0.428,0,0.713,0.306,0.713,0.611v2.523h2.524c0.305,0,0.609,0.326,0.609,0.732
			c0,0.428-0.305,0.713-0.609,0.713h-2.524v2.545c0,0.346-0.285,0.59-0.713,0.59C149.76-14.745,149.434-14.989,149.434-15.335z"/>
	</g>
</g>
<path fill="#A1A8BF" d="M158.371,159.848L158.371,159.848z"/>
<g>
	<path fill="#9ED5EE" d="M151.03,7.677c-3.74,0-13.471,6.01-14.57,6.7l-0.08,0.05H10.52v1.16h125.85l0.09,0.06
		c1.1,0.68,10.83,6.7,14.57,6.7c4.05,0,7.34-3.29,7.34-7.34C158.37,10.967,155.08,7.677,151.03,7.677z M151.03,20.847
		c-2.511,0-9.29-3.77-12.73-5.84c3.44-2.07,10.21-5.83,12.73-5.83c3.22,0,5.84,2.61,5.84,5.83
		C156.87,18.227,154.25,20.847,151.03,20.847z"/>
</g>
<g>
	<g>
		<path fill="#9ED5EE" d="M149.434,18.214V15.67h-2.523c-0.346,0-0.59-0.285-0.59-0.712c0-0.407,0.244-0.733,0.59-0.733h2.523V11.7
			c0-0.305,0.326-0.61,0.754-0.61s0.713,0.306,0.713,0.61v2.524h2.523c0.305,0,0.61,0.326,0.61,0.733
			c0,0.427-0.306,0.712-0.61,0.712H150.9v2.544c0,0.347-0.285,0.591-0.713,0.591S149.434,18.561,149.434,18.214z"/>
	</g>
</g>
<path fill="#A1A8BF" d="M158.371,159.848L158.371,159.848z"/>
<g>
	<path fill="#CDC4CB" d="M151.03,41.797c-3.74,0-13.471,6.02-14.57,6.71l-0.08,0.05H10.52v1.16h125.85l0.09,0.06
		c1.1,0.68,10.83,6.7,14.57,6.7c4.05,0,7.34-3.29,7.34-7.34C158.37,45.097,155.08,41.797,151.03,41.797z M151.03,54.977
		c-2.511,0-9.29-3.77-12.73-5.84c3.44-2.07,10.22-5.84,12.73-5.84c3.22,0,5.84,2.62,5.84,5.84
		C156.87,52.357,154.25,54.977,151.03,54.977z"/>
</g>
<g>
	<g>
		<path fill="#CDC4CB" d="M149.434,52.343v-2.544h-2.523c-0.347,0-0.591-0.285-0.591-0.713c0-0.406,0.244-0.732,0.591-0.732h2.523
			v-2.524c0-0.306,0.326-0.611,0.753-0.611c0.428,0,0.713,0.306,0.713,0.611v2.524h2.524c0.305,0,0.609,0.326,0.609,0.732
			c0,0.428-0.305,0.713-0.609,0.713h-2.524v2.544c0,0.346-0.285,0.59-0.713,0.59C149.76,52.933,149.434,52.688,149.434,52.343z"/>
	</g>
</g>
<g>
	<path fill="#E67D6D" d="M151.03,75.637c-3.74,0-13.471,6.01-14.57,6.7l-0.08,0.05H10.52v1.16h125.85l0.09,0.06
		c1.1,0.68,10.83,6.69,14.57,6.69c4.05,0,7.34-3.28,7.34-7.33C158.37,78.927,155.08,75.637,151.03,75.637z M151.03,88.797
		c-2.511,0-9.29-3.76-12.73-5.83c3.44-2.07,10.22-5.83,12.73-5.83c3.22,0,5.84,2.62,5.84,5.83
		C156.87,86.187,154.25,88.797,151.03,88.797z"/>
</g>
<g>
	<g>
		<path fill="#E67D6D" d="M149.434,86.172V83.63h-2.523c-0.347,0-0.591-0.285-0.591-0.712c0-0.406,0.244-0.732,0.591-0.732h2.523
			v-2.523c0-0.306,0.326-0.611,0.753-0.611c0.428,0,0.713,0.306,0.713,0.611v2.523h2.524c0.305,0,0.609,0.326,0.609,0.732
			c0,0.427-0.305,0.712-0.609,0.712h-2.524v2.542c0,0.346-0.285,0.59-0.713,0.59C149.76,86.762,149.434,86.518,149.434,86.172z"/>
	</g>
</g>
<g>
	<path fill="#F2A390" d="M151.03,109.467c-3.74,0-13.471,6.01-14.57,6.69l-0.09,0.061H10.52v1.159h125.85l0.09,0.061
		c1.1,0.68,10.83,6.701,14.57,6.701c4.05,0,7.34-3.291,7.34-7.341C158.37,112.757,155.08,109.467,151.03,109.467z M151.03,122.639
		c-2.511,0-9.29-3.771-12.73-5.841c3.44-2.071,10.22-5.831,12.73-5.831c3.22,0,5.84,2.61,5.84,5.831
		C156.87,120.018,154.25,122.639,151.03,122.639z"/>
</g>
<g>
	<g>
		<path fill="#F2A390" d="M149.434,120.005v-2.544h-2.523c-0.347,0-0.591-0.285-0.591-0.711c0-0.407,0.244-0.733,0.591-0.733h2.523
			v-2.524c0-0.305,0.326-0.61,0.753-0.61c0.428,0,0.713,0.306,0.713,0.61v2.524h2.524c0.305,0,0.609,0.326,0.609,0.733
			c0,0.426-0.305,0.711-0.609,0.711h-2.524v2.544c0,0.347-0.285,0.591-0.713,0.591C149.76,120.596,149.434,120.352,149.434,120.005z
			"/>
	</g>
</g>
</svg>
