<?xml version="1.0" encoding="utf-8"?>
<!-- Generator: Adobe Illustrator 15.0.0, SVG Export Plug-In . SVG Version: 6.00 Build 0)  -->
<!DOCTYPE svg PUBLIC "-//W3C//DTD SVG 1.1//EN" "http://www.w3.org/Graphics/SVG/1.1/DTD/svg11.dtd">
<svg version="1.1" id="Ebene_1" xmlns="http://www.w3.org/2000/svg" xmlns:xlink="http://www.w3.org/1999/xlink" x="0px" y="0px"
	 width="5.438px" height="6.063px" viewBox="0 0 5.438 6.063" enable-background="new 0 0 5.438 6.063" xml:space="preserve">
<line fill="none" stroke="#A1A8BF" stroke-width="1.163" x1="54.862" y1="-240.176" x2="181.875" y2="-240.176"/>
<g>
	<path fill="#A1A8BF" d="M193.746-236.97v-2.545h-2.523c-0.347,0-0.591-0.285-0.591-0.713c0-0.406,0.244-0.732,0.591-0.732h2.523
		v-2.523c0-0.306,0.326-0.611,0.753-0.611c0.428,0,0.713,0.306,0.713,0.611v2.523h2.524c0.305,0,0.609,0.326,0.609,0.732
		c0,0.428-0.305,0.713-0.609,0.713h-2.524v2.545c0,0.346-0.285,0.59-0.713,0.59C194.072-236.38,193.746-236.625,193.746-236.97z"/>
</g>
<g>
	<defs>
		<rect id="SVGID_1_" x="-95.688" y="-188.28" width="298.372" height="228.465"/>
	</defs>
	<clipPath id="SVGID_2_">
		<use xlink:href="#SVGID_1_"  overflow="visible"/>
	</clipPath>
	<path clip-path="url(#SVGID_2_)" fill="none" stroke="#A1A8BF" stroke-width="1.5" d="M195.346-165.624
		c3.639,0,6.588-2.949,6.588-6.588c0-3.638-2.949-6.586-6.588-6.586c-3.637,0-14.172,6.586-14.172,6.586
		S191.709-165.624,195.346-165.624z"/>
</g>
<line fill="none" stroke="#A1A8BF" stroke-width="1.163" x1="54.835" y1="-37.364" x2="181.848" y2="-37.364"/>
<g>
	<defs>
		<rect id="SVGID_3_" x="-96.354" y="-176.837" width="298.372" height="228.465"/>
	</defs>
	<clipPath id="SVGID_4_">
		<use xlink:href="#SVGID_3_"  overflow="visible"/>
	</clipPath>
	<g clip-path="url(#SVGID_4_)">
		<path fill="#A1A8BF" d="M193.08,45.25v-2.544h-2.523c-0.348,0-0.592-0.285-0.592-0.711c0-0.407,0.244-0.733,0.592-0.733h2.523
			v-2.524c0-0.305,0.326-0.61,0.752-0.61c0.428,0,0.713,0.306,0.713,0.61v2.524h2.525c0.305,0,0.609,0.326,0.609,0.733
			c0,0.427-0.305,0.711-0.609,0.711h-2.525v2.544c0,0.346-0.285,0.59-0.713,0.59C193.406,45.84,193.08,45.596,193.08,45.25z"/>
	</g>
	<path clip-path="url(#SVGID_4_)" fill="none" stroke="#A1A8BF" stroke-width="1.5" d="M194.68,48.629
		c3.639,0,6.588-2.949,6.588-6.586c0-3.637-2.949-6.585-6.588-6.585c-3.637,0-14.172,6.585-14.172,6.585
		S191.043,48.629,194.68,48.629z"/>
</g>
<line fill="none" stroke="#FFF59F" stroke-width="1.163" x1="54.835" y1="-206.16" x2="181.848" y2="-206.16"/>
<g>
	<path fill="#FFF59F" d="M193.746-202.955v-2.545h-2.523c-0.347,0-0.591-0.285-0.591-0.713c0-0.406,0.244-0.732,0.591-0.732h2.523
		v-2.523c0-0.306,0.326-0.611,0.753-0.611c0.428,0,0.713,0.306,0.713,0.611v2.523h2.524c0.305,0,0.609,0.326,0.609,0.732
		c0,0.428-0.305,0.713-0.609,0.713h-2.524v2.545c0,0.346-0.285,0.59-0.713,0.59C194.072-202.365,193.746-202.609,193.746-202.955z"
		/>
</g>
<g>
	<defs>
		<rect id="SVGID_5_" x="-94.35" y="-182.67" width="298.372" height="228.465"/>
	</defs>
	<clipPath id="SVGID_6_">
		<use xlink:href="#SVGID_5_"  overflow="visible"/>
	</clipPath>
	<path clip-path="url(#SVGID_6_)" fill="none" stroke="#FFF59F" stroke-width="1.5" d="M196.684-125.999
		c3.639,0,6.588-2.949,6.588-6.587s-2.949-6.586-6.588-6.586c-3.637,0-14.172,6.586-14.172,6.586S193.047-125.999,196.684-125.999z"
		/>
</g>
<line fill="none" stroke="#9ED5EE" stroke-width="1.163" x1="54.835" y1="-172.61" x2="181.848" y2="-172.61"/>
<g>
	<path fill="#9ED5EE" d="M193.746-169.406v-2.544h-2.523c-0.346,0-0.59-0.285-0.59-0.712c0-0.407,0.244-0.733,0.59-0.733h2.523
		v-2.524c0-0.305,0.326-0.61,0.754-0.61s0.713,0.306,0.713,0.61v2.524h2.523c0.305,0,0.61,0.326,0.61,0.733
		c0,0.427-0.306,0.712-0.61,0.712h-2.523v2.544c0,0.347-0.285,0.591-0.713,0.591S193.746-169.059,193.746-169.406z"/>
</g>
<g>
	<defs>
		<rect id="SVGID_7_" x="-94.351" y="-176.837" width="298.371" height="228.465"/>
	</defs>
	<clipPath id="SVGID_8_">
		<use xlink:href="#SVGID_7_"  overflow="visible"/>
	</clipPath>
	<path clip-path="url(#SVGID_8_)" fill="none" stroke="#9ED5EE" stroke-width="1.5" d="M196.684-86.617
		c3.638,0,6.587-2.948,6.587-6.587c0-3.638-2.949-6.586-6.587-6.586s-14.173,6.586-14.173,6.586S193.046-86.617,196.684-86.617z"/>
</g>
<line fill="none" stroke="#CDC4CB" stroke-width="1.163" x1="54.835" y1="-138.481" x2="181.848" y2="-138.481"/>
<g>
	<path fill="#CDC4CB" d="M193.746-135.277v-2.544h-2.523c-0.347,0-0.591-0.285-0.591-0.713c0-0.406,0.244-0.732,0.591-0.732h2.523
		v-2.524c0-0.306,0.326-0.611,0.753-0.611c0.428,0,0.713,0.306,0.713,0.611v2.524h2.524c0.305,0,0.609,0.326,0.609,0.732
		c0,0.428-0.305,0.713-0.609,0.713h-2.524v2.544c0,0.346-0.285,0.59-0.713,0.59C194.072-134.687,193.746-134.931,193.746-135.277z"
		/>
</g>
<g>
	<defs>
		<rect id="SVGID_9_" x="-94.35" y="-167.837" width="298.372" height="228.465"/>
	</defs>
	<clipPath id="SVGID_10_">
		<use xlink:href="#SVGID_9_"  overflow="visible"/>
	</clipPath>
	<path clip-path="url(#SVGID_10_)" fill="none" stroke="#CDC4CB" stroke-width="1.5" d="M196.684-43.489
		c3.639,0,6.588-2.948,6.588-6.585c0-3.64-2.949-6.588-6.588-6.588c-3.637,0-14.172,6.588-14.172,6.588
		S193.047-43.489,196.684-43.489z"/>
</g>
<line fill="none" stroke="#E67D6D" stroke-width="1.163" x1="54.835" y1="-104.649" x2="181.848" y2="-104.649"/>
<g>
	<path fill="#E67D6D" d="M193.746-101.447v-2.542h-2.523c-0.347,0-0.591-0.285-0.591-0.712c0-0.406,0.244-0.732,0.591-0.732h2.523
		v-2.523c0-0.306,0.326-0.611,0.753-0.611c0.428,0,0.713,0.306,0.713,0.611v2.523h2.524c0.305,0,0.609,0.326,0.609,0.732
		c0,0.427-0.305,0.712-0.609,0.712h-2.524v2.542c0,0.346-0.285,0.59-0.713,0.59C194.072-100.857,193.746-101.102,193.746-101.447z"
		/>
</g>
<g>
	<defs>
		<rect id="SVGID_11_" x="-95.687" y="-169.837" width="298.371" height="228.465"/>
	</defs>
	<clipPath id="SVGID_12_">
		<use xlink:href="#SVGID_11_"  overflow="visible"/>
	</clipPath>
	<path clip-path="url(#SVGID_12_)" fill="none" stroke="#E67D6D" stroke-width="1.5" d="M195.348-11.66
		c3.637,0,6.586-2.949,6.586-6.582c0-3.637-2.949-6.585-6.586-6.585c-3.639,0-14.174,6.585-14.174,6.585
		S191.709-11.66,195.348-11.66z"/>
</g>
<line fill="none" stroke="#F2A390" stroke-width="1.163" x1="54.835" y1="-70.82" x2="181.848" y2="-70.82"/>
<g>
	<path fill="#F2A390" d="M193.746-67.616v-2.543h-2.523c-0.347,0-0.591-0.285-0.591-0.711c0-0.407,0.244-0.733,0.591-0.733h2.523
		v-2.524c0-0.305,0.326-0.61,0.753-0.61c0.428,0,0.713,0.306,0.713,0.61v2.524h2.524c0.305,0,0.609,0.326,0.609,0.733
		c0,0.426-0.305,0.711-0.609,0.711h-2.524v2.543c0,0.347-0.285,0.591-0.713,0.591C194.072-67.025,193.746-67.269,193.746-67.616z"/>
</g>
<g>
	<defs>
		<polyline id="SVGID_13_" points="-94.35,58.628 204.021,58.628 204.021,-169.837 		"/>
	</defs>
	<clipPath id="SVGID_14_">
		<use xlink:href="#SVGID_13_"  overflow="visible"/>
	</clipPath>
	<path clip-path="url(#SVGID_14_)" fill="none" stroke="#F2A390" stroke-width="1.5" d="M196.684,22.172
		c3.639,0,6.588-2.949,6.588-6.586s-2.949-6.585-6.588-6.585c-3.637,0-14.172,6.585-14.172,6.585S193.047,22.172,196.684,22.172z"/>
</g>
<text transform="matrix(1 0 0 1 -31.3594 202.3232)" fill="#1A171B" font-family="'Dosis-Light'" font-size="9.3035"> </text>
<g>
	<defs>
		<rect id="SVGID_15_" x="-137.531" y="48.538" width="355.936" height="34.924"/>
	</defs>
	<clipPath id="SVGID_16_">
		<use xlink:href="#SVGID_15_"  overflow="visible"/>
	</clipPath>
	
		<line clip-path="url(#SVGID_16_)" fill="none" stroke="#FFFFFF" stroke-width="2" x1="-137.531" y1="72.643" x2="187.781" y2="72.643"/>
	<g clip-path="url(#SVGID_16_)">
		<path fill="#FFFFFF" d="M205.428,77.45v-4.03h-4.029c-0.428,0-0.734-0.336-0.734-0.855c0-0.519,0.307-0.916,0.734-0.916h4.029
			V67.68c0-0.397,0.396-0.794,0.885-0.794c0.52,0,0.887,0.396,0.887,0.794v3.969h3.969c0.396,0,0.795,0.397,0.795,0.916
			c0,0.52-0.398,0.855-0.795,0.855h-3.969v4.03c0,0.427-0.367,0.732-0.887,0.732C205.824,78.183,205.428,77.877,205.428,77.45z"/>
	</g>
	<path clip-path="url(#SVGID_16_)" fill="none" stroke="#FFFFFF" stroke-width="1.875" d="M207.584,82.524
		c5.457,0,9.881-4.424,9.881-9.881s-4.424-9.881-9.881-9.881c-5.459,0-21.266,9.881-21.266,9.881S202.125,82.524,207.584,82.524z"/>
</g>
<g>
	<g>
		<defs>
			<rect id="SVGID_17_" x="12.115" y="-5.883" width="32.824" height="67.781"/>
		</defs>
		<clipPath id="SVGID_18_">
			<use xlink:href="#SVGID_17_"  overflow="visible"/>
		</clipPath>
		<circle clip-path="url(#SVGID_18_)" fill="none" stroke="#FFF59F" stroke-width="1.215" cx="28.527" cy="28.061" r="6.804"/>
	</g>
	<polygon fill="#FFF59F" points="27.247,24.521 27.247,31.603 31.225,28.062 	"/>
	<g>
		<defs>
			<rect id="SVGID_19_" x="12.115" y="-5.883" width="32.824" height="67.781"/>
		</defs>
		<clipPath id="SVGID_20_">
			<use xlink:href="#SVGID_19_"  overflow="visible"/>
		</clipPath>
		<circle clip-path="url(#SVGID_20_)" fill="none" stroke="#FFF59F" stroke-width="1.215" cx="28.527" cy="53.487" r="6.804"/>
	</g>
	<text transform="matrix(1 0 0 1 24.7622 4.7354)" fill="#1A171B" font-family="'MinionPro-Regular'" font-size="9.7208"> </text>
	<g>
		<defs>
			<rect id="SVGID_21_" x="12.115" y="-5.883" width="32.824" height="67.781"/>
		</defs>
		<clipPath id="SVGID_22_">
			<use xlink:href="#SVGID_21_"  overflow="visible"/>
		</clipPath>
		<circle clip-path="url(#SVGID_22_)" fill="none" stroke="#FFF59F" stroke-width="1.215" cx="28.527" cy="3.051" r="6.804"/>
	</g>
	<g>
		<path fill="#FFF59F" d="M29.099,0.033c0,0.361-0.339,0.689-0.766,0.689c-0.438,0-0.777-0.328-0.777-0.689
			c0-0.372,0.339-0.689,0.777-0.689C28.759-0.656,29.099-0.339,29.099,0.033z M29.044,2.32v4.311c0,0.219-0.317,0.448-0.711,0.448
			c-0.405,0-0.7-0.229-0.7-0.448V2.32c0-0.263,0.295-0.438,0.7-0.438C28.727,1.883,29.044,2.058,29.044,2.32z"/>
	</g>
	<line fill="none" stroke="#FFF59F" stroke-width="1.058" x1="25.227" y1="50.859" x2="29.744" y2="50.859"/>
	<line fill="none" stroke="#FFF59F" stroke-width="1.058" x1="25.227" y1="53.008" x2="31.827" y2="53.008"/>
	<line fill="none" stroke="#FFF59F" stroke-width="1.058" x1="25.227" y1="54.582" x2="31.827" y2="54.582"/>
	<line fill="none" stroke="#FFF59F" stroke-width="1.058" x1="25.227" y1="56.156" x2="31.827" y2="56.156"/>
</g>
<g>
	<path fill="#FFF59F" d="M0.505,4.76l1.291-1.805L0.592,1.281C0.56,1.237,0.505,1.139,0.505,1.052c0-0.329,0.569-0.712,0.941-0.712
		c0.065,0,0.229,0.011,0.317,0.153l0.996,1.598l1.007-1.587C3.842,0.384,3.995,0.34,4.093,0.34c0.339,0,0.93,0.383,0.93,0.712
		c0,0.076-0.033,0.142-0.088,0.229L3.721,2.966L5.023,4.76c0.043,0.044,0.087,0.143,0.087,0.241c0,0.307-0.547,0.7-0.919,0.7
		c-0.109,0-0.252-0.044-0.329-0.153L2.758,3.885L1.665,5.548c-0.077,0.109-0.241,0.153-0.35,0.153c-0.295,0-0.897-0.372-0.897-0.7
		C0.417,4.913,0.45,4.826,0.505,4.76z"/>
</g>
</svg>
